<svg xmlns="http://www.w3.org/2000/svg" xmlns:xlink="http://www.w3.org/1999/xlink" width="500" zoomAndPan="magnify" viewBox="0 0 375 374.999991" height="500" preserveAspectRatio="xMidYMid meet" version="1.2"><defs><clipPath id="416ffe442c"><path d="M 49.742188 49.742188 L 324.992188 49.742188 L 324.992188 324.992188 L 49.742188 324.992188 Z M 49.742188 49.742188 "/></clipPath><clipPath id="f7ef45bced"><path d="M 43.621094 43.621094 L 331.375 43.621094 L 331.375 331.371094 L 43.621094 331.371094 Z M 43.621094 43.621094 "/></clipPath></defs><g id="30b22ba126"><g style="fill:#000000;fill-opacity:1;"><g transform="translate(62.756676, 143.843676)"><path style="stroke:none" d="M 6.640625 0 L 6.390625 -1.21875 L 6.328125 -1.21875 C 5.898438 -0.6875 5.472656 -0.320312 5.046875 -0.125 C 4.617188 0.0625 4.085938 0.15625 3.453125 0.15625 C 2.609375 0.15625 1.941406 -0.0625 1.453125 -0.5 C 0.972656 -0.9375 0.734375 -1.5625 0.734375 -2.375 C 0.734375 -4.101562 2.117188 -5.007812 4.890625 -5.09375 L 6.34375 -5.140625 L 6.34375 -5.671875 C 6.34375 -6.335938 6.195312 -6.832031 5.90625 -7.15625 C 5.613281 -7.476562 5.148438 -7.640625 4.515625 -7.640625 C 3.804688 -7.640625 3 -7.421875 2.09375 -6.984375 L 1.703125 -7.96875 C 2.117188 -8.195312 2.578125 -8.375 3.078125 -8.5 C 3.585938 -8.632812 4.09375 -8.703125 4.59375 -8.703125 C 5.613281 -8.703125 6.367188 -8.472656 6.859375 -8.015625 C 7.359375 -7.566406 7.609375 -6.84375 7.609375 -5.84375 L 7.609375 0 Z M 3.71875 -0.921875 C 4.519531 -0.921875 5.148438 -1.140625 5.609375 -1.578125 C 6.078125 -2.023438 6.3125 -2.644531 6.3125 -3.4375 L 6.3125 -4.21875 L 5.015625 -4.15625 C 3.984375 -4.125 3.238281 -3.960938 2.78125 -3.671875 C 2.320312 -3.390625 2.09375 -2.953125 2.09375 -2.359375 C 2.09375 -1.890625 2.234375 -1.53125 2.515625 -1.28125 C 2.804688 -1.039062 3.207031 -0.921875 3.71875 -0.921875 Z M 3.71875 -0.921875 "/></g></g><g clip-rule="nonzero" clip-path="url(#416ffe442c)"><path style=" stroke:none;fill-rule:nonzero;fill:#00ff00;fill-opacity:1;" d="M 324.992188 187.367188 C 324.992188 189.621094 324.9375 191.871094 324.828125 194.121094 C 324.71875 196.371094 324.550781 198.617188 324.332031 200.859375 C 324.109375 203.097656 323.835938 205.335938 323.503906 207.5625 C 323.171875 209.789062 322.789062 212.007812 322.347656 214.21875 C 321.910156 216.425781 321.417969 218.625 320.867188 220.808594 C 320.320312 222.992188 319.722656 225.164062 319.066406 227.320312 C 318.414062 229.472656 317.707031 231.613281 316.949219 233.734375 C 316.191406 235.851562 315.378906 237.953125 314.515625 240.035156 C 313.65625 242.117188 312.742188 244.175781 311.78125 246.210938 C 310.816406 248.246094 309.804688 250.257812 308.742188 252.246094 C 307.679688 254.230469 306.570312 256.191406 305.414062 258.121094 C 304.253906 260.054688 303.050781 261.957031 301.800781 263.828125 C 300.546875 265.703125 299.25 267.542969 297.910156 269.351562 C 296.566406 271.160156 295.183594 272.9375 293.753906 274.675781 C 292.324219 276.417969 290.855469 278.121094 289.339844 279.792969 C 287.828125 281.460938 286.277344 283.089844 284.683594 284.683594 C 283.089844 286.277344 281.460938 287.828125 279.792969 289.339844 C 278.121094 290.855469 276.417969 292.324219 274.675781 293.753906 C 272.9375 295.183594 271.160156 296.566406 269.351562 297.910156 C 267.542969 299.25 265.703125 300.546875 263.828125 301.800781 C 261.957031 303.050781 260.054688 304.253906 258.121094 305.414062 C 256.191406 306.570312 254.230469 307.679688 252.246094 308.742188 C 250.257812 309.804688 248.246094 310.816406 246.210938 311.78125 C 244.175781 312.742188 242.117188 313.65625 240.035156 314.515625 C 237.953125 315.378906 235.851562 316.191406 233.734375 316.949219 C 231.613281 317.707031 229.472656 318.414062 227.320312 319.066406 C 225.164062 319.722656 222.992188 320.320312 220.808594 320.867188 C 218.625 321.417969 216.425781 321.910156 214.21875 322.347656 C 212.007812 322.789062 209.789062 323.171875 207.5625 323.503906 C 205.335938 323.835938 203.097656 324.109375 200.859375 324.332031 C 198.617188 324.550781 196.371094 324.71875 194.121094 324.828125 C 191.871094 324.9375 189.621094 324.992188 187.367188 324.992188 C 185.117188 324.992188 182.863281 324.9375 180.617188 324.828125 C 178.367188 324.71875 176.121094 324.550781 173.878906 324.332031 C 171.636719 324.109375 169.402344 323.835938 167.175781 323.503906 C 164.945312 323.171875 162.726562 322.789062 160.519531 322.347656 C 158.308594 321.910156 156.113281 321.417969 153.929688 320.867188 C 151.742188 320.320312 149.574219 319.722656 147.417969 319.066406 C 145.261719 318.414062 143.125 317.707031 141.003906 316.949219 C 138.882812 316.191406 136.78125 315.378906 134.703125 314.515625 C 132.621094 313.65625 130.5625 312.742188 128.527344 311.78125 C 126.488281 310.816406 124.480469 309.804688 122.492188 308.742188 C 120.507812 307.679688 118.546875 306.570312 116.613281 305.414062 C 114.683594 304.253906 112.78125 303.050781 110.90625 301.800781 C 109.035156 300.546875 107.195312 299.25 105.386719 297.910156 C 103.574219 296.566406 101.800781 295.183594 100.058594 293.753906 C 98.320312 292.324219 96.613281 290.855469 94.945312 289.339844 C 93.277344 287.828125 91.644531 286.277344 90.054688 284.683594 C 88.460938 283.089844 86.90625 281.460938 85.394531 279.792969 C 83.882812 278.121094 82.410156 276.417969 80.984375 274.675781 C 79.554688 272.9375 78.167969 271.160156 76.828125 269.351562 C 75.484375 267.542969 74.1875 265.703125 72.9375 263.828125 C 71.6875 261.957031 70.480469 260.054688 69.324219 258.121094 C 68.164062 256.191406 67.054688 254.230469 65.992188 252.246094 C 64.933594 250.257812 63.917969 248.246094 62.957031 246.210938 C 61.992188 244.175781 61.082031 242.117188 60.21875 240.035156 C 59.359375 237.953125 58.546875 235.851562 57.789062 233.734375 C 57.03125 231.613281 56.324219 229.472656 55.667969 227.320312 C 55.015625 225.164062 54.414062 222.992188 53.867188 220.808594 C 53.320312 218.625 52.828125 216.425781 52.386719 214.21875 C 51.949219 212.007812 51.5625 209.789062 51.234375 207.5625 C 50.902344 205.335938 50.625 203.097656 50.40625 200.859375 C 50.183594 198.617188 50.019531 196.371094 49.910156 194.121094 C 49.796875 191.871094 49.742188 189.621094 49.742188 187.367188 C 49.742188 185.117188 49.796875 182.863281 49.910156 180.617188 C 50.019531 178.367188 50.183594 176.121094 50.40625 173.878906 C 50.625 171.636719 50.902344 169.402344 51.234375 167.175781 C 51.5625 164.945312 51.949219 162.726562 52.386719 160.519531 C 52.828125 158.308594 53.320312 156.113281 53.867188 153.929688 C 54.414062 151.742188 55.015625 149.574219 55.667969 147.417969 C 56.324219 145.261719 57.03125 143.125 57.789062 141.003906 C 58.546875 138.882812 59.359375 136.78125 60.21875 134.703125 C 61.082031 132.621094 61.992188 130.5625 62.957031 128.527344 C 63.917969 126.488281 64.933594 124.480469 65.992188 122.492188 C 67.054688 120.507812 68.164062 118.546875 69.324219 116.613281 C 70.480469 114.683594 71.6875 112.78125 72.9375 110.90625 C 74.1875 109.035156 75.484375 107.195312 76.828125 105.386719 C 78.167969 103.574219 79.554688 101.800781 80.984375 100.058594 C 82.410156 98.320312 83.882812 96.613281 85.394531 94.945312 C 86.90625 93.277344 88.460938 91.644531 90.054688 90.054688 C 91.644531 88.460938 93.277344 86.90625 94.945312 85.394531 C 96.613281 83.882812 98.320312 82.410156 100.058594 80.984375 C 101.800781 79.554688 103.574219 78.167969 105.386719 76.828125 C 107.195312 75.484375 109.035156 74.1875 110.90625 72.9375 C 112.78125 71.6875 114.683594 70.480469 116.613281 69.324219 C 118.546875 68.164062 120.507812 67.054688 122.492188 65.992188 C 124.480469 64.933594 126.488281 63.917969 128.527344 62.957031 C 130.5625 61.992188 132.621094 61.082031 134.703125 60.21875 C 136.78125 59.359375 138.882812 58.546875 141.003906 57.789062 C 143.125 57.03125 145.261719 56.324219 147.417969 55.667969 C 149.574219 55.015625 151.742188 54.414062 153.929688 53.867188 C 156.113281 53.320312 158.308594 52.828125 160.519531 52.386719 C 162.726562 51.949219 164.945312 51.5625 167.175781 51.234375 C 169.402344 50.902344 171.636719 50.625 173.878906 50.40625 C 176.121094 50.183594 178.367188 50.019531 180.617188 49.910156 C 182.863281 49.796875 185.117188 49.742188 187.367188 49.742188 C 189.621094 49.742188 191.871094 49.796875 194.121094 49.910156 C 196.371094 50.019531 198.617188 50.183594 200.859375 50.40625 C 203.097656 50.625 205.335938 50.902344 207.5625 51.234375 C 209.789062 51.5625 212.007812 51.949219 214.21875 52.386719 C 216.425781 52.828125 218.625 53.320312 220.808594 53.867188 C 222.992188 54.414062 225.164062 55.015625 227.320312 55.667969 C 229.472656 56.324219 231.613281 57.03125 233.734375 57.789062 C 235.851562 58.546875 237.953125 59.359375 240.035156 60.21875 C 242.117188 61.082031 244.175781 61.992188 246.210938 62.957031 C 248.246094 63.917969 250.257812 64.933594 252.246094 65.992188 C 254.230469 67.054688 256.191406 68.164062 258.121094 69.324219 C 260.054688 70.480469 261.957031 71.6875 263.828125 72.9375 C 265.703125 74.1875 267.542969 75.484375 269.351562 76.828125 C 271.160156 78.167969 272.9375 79.554688 274.675781 80.984375 C 276.417969 82.410156 278.121094 83.882812 279.792969 85.394531 C 281.460938 86.90625 283.089844 88.460938 284.683594 90.054688 C 286.277344 91.644531 287.828125 93.277344 289.339844 94.945312 C 290.855469 96.613281 292.324219 98.320312 293.753906 100.058594 C 295.183594 101.800781 296.566406 103.574219 297.910156 105.386719 C 299.25 107.195312 300.546875 109.035156 301.800781 110.90625 C 303.050781 112.78125 304.253906 114.683594 305.414062 116.613281 C 306.570312 118.546875 307.679688 120.507812 308.742188 122.492188 C 309.804688 124.480469 310.816406 126.488281 311.78125 128.527344 C 312.742188 130.5625 313.65625 132.621094 314.515625 134.703125 C 315.378906 136.78125 316.191406 138.882812 316.949219 141.003906 C 317.707031 143.125 318.414062 145.261719 319.066406 147.417969 C 319.722656 149.574219 320.320312 151.742188 320.867188 153.929688 C 321.417969 156.113281 321.910156 158.308594 322.347656 160.519531 C 322.789062 162.726562 323.171875 164.945312 323.503906 167.175781 C 323.835938 169.402344 324.109375 171.636719 324.332031 173.878906 C 324.550781 176.121094 324.71875 178.367188 324.828125 180.617188 C 324.9375 182.863281 324.992188 185.117188 324.992188 187.367188 Z M 324.992188 187.367188 "/></g><path style=" stroke:none;fill-rule:evenodd;fill:#ffffff;fill-opacity:1;" d="M 260.683594 241.421875 L 114.050781 241.421875 C 113.609375 241.421875 113.175781 241.363281 112.765625 241.25 L 163.0625 190.957031 L 182.078125 209.972656 C 183.488281 211.382812 185.367188 212.15625 187.367188 212.15625 C 189.371094 212.15625 191.25 211.378906 192.660156 209.96875 L 211.675781 190.953125 L 261.972656 241.25 C 261.5625 241.359375 261.128906 241.421875 260.683594 241.421875 Z M 109.277344 237.820312 C 109.15625 237.386719 109.089844 236.929688 109.089844 236.457031 L 109.089844 138.28125 C 109.089844 137.878906 109.136719 137.492188 109.226562 137.117188 L 159.601562 187.496094 Z M 215.132812 187.496094 L 265.511719 137.121094 C 265.601562 137.492188 265.648438 137.882812 265.648438 138.28125 L 265.648438 236.457031 C 265.648438 236.929688 265.582031 237.386719 265.457031 237.820312 Z M 112.570312 133.542969 C 113.039062 133.394531 113.535156 133.316406 114.050781 133.316406 L 260.683594 133.316406 C 261.203125 133.316406 261.699219 133.394531 262.167969 133.542969 L 209.945312 185.765625 L 209.898438 185.808594 L 189.199219 206.511719 C 188.230469 207.480469 186.507812 207.480469 185.539062 206.511719 L 164.835938 185.804688 L 164.792969 185.765625 Z M 112.570312 133.542969 "/><g clip-rule="nonzero" clip-path="url(#f7ef45bced)"><path style=" stroke:none;fill-rule:nonzero;fill:#00ff00;fill-opacity:1;" d="M 43.621094 187.496094 C 43.621094 108.035156 108.039062 43.621094 187.5 43.621094 C 266.960938 43.621094 331.375 108.035156 331.375 187.496094 C 331.375 266.957031 266.960938 331.371094 187.5 331.371094 C 108.039062 331.371094 43.621094 266.957031 43.621094 187.496094 "/></g><path style=" stroke:none;fill-rule:nonzero;fill:#ffffff;fill-opacity:1;" d="M 106.265625 144.496094 C 106.125 160.925781 109.320312 186.921875 148.28125 226.714844 C 188.074219 265.679688 214.070312 268.871094 230.503906 268.730469 C 252.695312 268.53125 263.101562 251.148438 263.101562 251.148438 C 267.378906 244.128906 268.589844 236.839844 268.589844 236.839844 C 269.5625 231.183594 265.300781 228.65625 265.300781 228.65625 C 255.96875 222.929688 234.523438 210.910156 234.523438 210.910156 C 226.460938 206.792969 221.347656 213.820312 221.347656 213.820312 C 210.59375 231.441406 206.898438 230.136719 203.046875 229.628906 C 192.234375 228.195312 169.214844 205.777344 169.214844 205.777344 C 169.214844 205.777344 146.800781 182.761719 145.367188 171.945312 C 144.859375 168.097656 143.554688 164.402344 161.175781 153.644531 C 161.175781 153.644531 168.199219 148.53125 164.085938 140.472656 C 164.085938 140.472656 152.066406 119.027344 146.335938 109.691406 C 146.335938 109.691406 143.816406 105.429688 138.15625 106.402344 C 138.15625 106.402344 130.867188 107.617188 123.84375 111.898438 C 123.84375 111.898438 106.460938 122.300781 106.265625 144.496094 "/></g></svg>