<svg xmlns="http://www.w3.org/2000/svg" xmlns:xlink="http://www.w3.org/1999/xlink" width="300" zoomAndPan="magnify" viewBox="0 0 224.87999 225" height="300" preserveAspectRatio="xMidYMid meet" version="1.2"><defs><clipPath id="cd15031ab4"><path d="M 105 87 L 119 87 L 119 198.882812 L 105 198.882812 Z M 105 87 "/></clipPath><clipPath id="d87b0e94e8"><path d="M 66 26.472656 L 159 26.472656 L 159 98 L 66 98 Z M 66 26.472656 "/></clipPath></defs><g id="5253028ef7"><g style="fill:#000000;fill-opacity:1;"><g transform="translate(105.710224, 108.328567)"><path style="stroke:none" d="M 2.75 0 L 2.65625 -0.5 L 2.625 -0.5 C 2.445312 -0.28125 2.269531 -0.128906 2.09375 -0.046875 C 1.914062 0.0234375 1.695312 0.0625 1.4375 0.0625 C 1.082031 0.0625 0.804688 -0.0234375 0.609375 -0.203125 C 0.410156 -0.390625 0.3125 -0.648438 0.3125 -0.984375 C 0.3125 -1.703125 0.882812 -2.078125 2.03125 -2.109375 L 2.625 -2.125 L 2.625 -2.34375 C 2.625 -2.625 2.5625 -2.832031 2.4375 -2.96875 C 2.320312 -3.101562 2.132812 -3.171875 1.875 -3.171875 C 1.582031 -3.171875 1.25 -3.078125 0.875 -2.890625 L 0.703125 -3.3125 C 0.878906 -3.40625 1.070312 -3.476562 1.28125 -3.53125 C 1.488281 -3.582031 1.695312 -3.609375 1.90625 -3.609375 C 2.332031 -3.609375 2.644531 -3.515625 2.84375 -3.328125 C 3.050781 -3.140625 3.15625 -2.835938 3.15625 -2.421875 L 3.15625 0 Z M 1.546875 -0.375 C 1.878906 -0.375 2.140625 -0.46875 2.328125 -0.65625 C 2.515625 -0.84375 2.609375 -1.097656 2.609375 -1.421875 L 2.609375 -1.75 L 2.078125 -1.71875 C 1.648438 -1.707031 1.34375 -1.640625 1.15625 -1.515625 C 0.96875 -1.398438 0.875 -1.21875 0.875 -0.96875 C 0.875 -0.78125 0.929688 -0.632812 1.046875 -0.53125 C 1.160156 -0.425781 1.328125 -0.375 1.546875 -0.375 Z M 1.546875 -0.375 "/></g></g><g clip-rule="nonzero" clip-path="url(#cd15031ab4)"><path style=" stroke:none;fill-rule:evenodd;fill:#00ff00;fill-opacity:1;" d="M 116.921875 198.519531 C 115.8125 198.519531 114.90625 197.609375 114.90625 196.503906 L 114.90625 89.667969 C 114.90625 88.558594 115.8125 87.652344 116.921875 87.652344 C 118.027344 87.652344 118.9375 88.558594 118.9375 89.667969 L 118.9375 196.503906 C 118.9375 197.609375 118.027344 198.519531 116.921875 198.519531 Z M 107.949219 198.519531 C 106.839844 198.519531 105.933594 197.609375 105.933594 196.503906 L 105.933594 91.683594 C 105.933594 90.574219 106.839844 89.667969 107.949219 89.667969 C 109.058594 89.667969 109.964844 90.574219 109.964844 91.683594 L 109.964844 196.503906 C 109.964844 197.609375 109.058594 198.519531 107.949219 198.519531 Z M 107.949219 198.519531 "/></g><path style=" stroke:none;fill-rule:evenodd;fill:#00ff00;fill-opacity:1;" d="M 147.359375 120.40625 C 146.046875 120.40625 144.738281 120.304688 143.527344 120.207031 C 139.496094 119.703125 136.976562 117.082031 134.558594 114.664062 C 131.835938 111.839844 129.316406 109.21875 124.175781 109.21875 L 117.425781 109.21875 C 116.316406 109.21875 115.410156 108.3125 115.410156 107.203125 C 115.410156 106.09375 116.316406 105.1875 117.425781 105.1875 L 124.175781 105.1875 C 131.03125 105.1875 134.558594 108.816406 137.480469 111.839844 C 139.597656 113.957031 141.410156 115.871094 144.03125 116.175781 C 145.746094 116.476562 148.265625 116.375 150.382812 116.273438 C 151.289062 116.273438 152.195312 116.273438 153.101562 116.273438 C 154.210938 116.273438 155.117188 117.183594 155.117188 118.289062 C 155.117188 119.398438 154.210938 120.304688 153.101562 120.304688 C 152.296875 120.304688 151.390625 120.304688 150.484375 120.304688 C 149.476562 120.40625 148.367188 120.40625 147.359375 120.40625 Z M 147.359375 120.40625 "/><path style=" stroke:none;fill-rule:evenodd;fill:#00ff00;fill-opacity:1;" d="M 151.492188 132.804688 C 134.859375 132.804688 132.441406 116.578125 132.039062 111.4375 C 132.039062 110.328125 132.84375 109.320312 133.953125 109.320312 C 135.0625 109.21875 135.96875 110.027344 136.070312 111.136719 C 136.472656 116.777344 138.792969 129.679688 152.902344 128.773438 C 154.109375 128.671875 155.019531 129.578125 155.117188 130.6875 C 155.117188 131.796875 154.3125 132.703125 153.203125 132.804688 C 152.597656 132.804688 151.996094 132.804688 151.492188 132.804688 Z M 151.492188 132.804688 "/><path style=" stroke:none;fill-rule:evenodd;fill:#00ff00;fill-opacity:1;" d="M 128.710938 127.261719 C 128.109375 127.261719 127.503906 126.957031 127.101562 126.453125 C 126.597656 125.75 126.191406 125.144531 125.890625 124.640625 C 124.679688 122.726562 124.582031 122.523438 123.070312 122.523438 L 117.425781 122.523438 C 116.316406 122.523438 115.410156 121.617188 115.410156 120.507812 C 115.410156 119.398438 116.316406 118.492188 117.425781 118.492188 L 123.070312 118.492188 C 126.796875 118.492188 127.90625 120.304688 129.316406 122.421875 C 129.621094 122.925781 129.921875 123.53125 130.425781 124.136719 C 131.03125 125.042969 130.828125 126.253906 129.921875 126.957031 C 129.519531 127.160156 129.117188 127.261719 128.710938 127.261719 Z M 128.710938 127.261719 "/><path style=" stroke:none;fill-rule:evenodd;fill:#00ff00;fill-opacity:1;" d="M 143.125 143.085938 L 133.449219 143.085938 C 132.945312 143.085938 132.542969 142.882812 132.242188 142.679688 L 123.472656 135.828125 L 117.425781 135.828125 C 116.316406 135.828125 115.410156 134.921875 115.410156 133.8125 C 115.410156 132.703125 116.316406 131.796875 117.425781 131.796875 L 124.175781 131.796875 C 124.679688 131.796875 125.085938 131.996094 125.488281 132.199219 L 134.15625 139.054688 L 143.125 139.054688 C 144.234375 139.054688 145.140625 139.960938 145.140625 141.070312 C 145.140625 142.175781 144.234375 143.085938 143.125 143.085938 Z M 143.125 143.085938 "/><path style=" stroke:none;fill-rule:evenodd;fill:#00ff00;fill-opacity:1;" d="M 135.867188 151.550781 L 117.425781 151.550781 C 116.316406 151.550781 115.410156 150.644531 115.410156 149.535156 C 115.410156 148.425781 116.316406 147.519531 117.425781 147.519531 L 135.867188 147.519531 C 136.976562 147.519531 137.882812 148.425781 137.882812 149.535156 C 137.882812 150.644531 136.976562 151.550781 135.867188 151.550781 Z M 135.867188 151.550781 "/><path style=" stroke:none;fill-rule:evenodd;fill:#00ff00;fill-opacity:1;" d="M 137.378906 160.722656 C 135.265625 160.722656 133.953125 160.621094 133.148438 160.320312 C 130.628906 159.3125 127.90625 155.984375 124.984375 150.441406 C 124.480469 149.433594 124.882812 148.226562 125.890625 147.722656 C 126.796875 147.21875 128.007812 147.621094 128.613281 148.628906 C 132.039062 155.28125 134.257812 156.386719 134.660156 156.589844 C 135.464844 156.792969 139.699219 156.691406 141.410156 156.691406 C 142.320312 156.589844 143.023438 156.589844 143.527344 156.589844 C 144.636719 156.589844 145.542969 157.496094 145.542969 158.605469 C 145.542969 159.714844 144.636719 160.621094 143.527344 160.621094 C 143.125 160.621094 142.417969 160.621094 141.613281 160.722656 C 139.898438 160.722656 138.589844 160.722656 137.378906 160.722656 Z M 137.378906 160.722656 "/><path style=" stroke:none;fill-rule:evenodd;fill:#00ff00;fill-opacity:1;" d="M 149.476562 182.695312 C 146.148438 182.695312 143.628906 182.292969 142.320312 180.578125 C 141.914062 180.074219 141.511719 179.46875 141.007812 178.863281 C 137.683594 174.226562 133.046875 167.980469 128.613281 167.980469 L 117.425781 167.980469 C 116.316406 167.980469 115.410156 167.070312 115.410156 165.964844 C 115.410156 164.855469 116.316406 163.949219 117.425781 163.949219 L 128.613281 163.949219 C 135.0625 163.949219 140.402344 171.203125 144.234375 176.445312 C 144.738281 177.050781 145.140625 177.65625 145.542969 178.160156 C 146.453125 178.964844 151.589844 178.664062 153.507812 178.5625 C 154.515625 178.460938 155.421875 178.460938 156.027344 178.460938 C 157.136719 178.460938 158.042969 179.265625 158.042969 180.375 C 158.042969 181.585938 157.136719 182.390625 156.027344 182.390625 C 155.523438 182.390625 154.714844 182.492188 153.808594 182.59375 C 152.195312 182.695312 150.785156 182.695312 149.476562 182.695312 Z M 149.476562 182.695312 "/><path style=" stroke:none;fill-rule:evenodd;fill:#00ff00;fill-opacity:1;" d="M 128.8125 180.679688 C 128.308594 180.679688 127.804688 180.578125 127.402344 180.175781 L 123.371094 176.445312 L 117.425781 176.445312 C 116.316406 176.445312 115.410156 175.539062 115.410156 174.429688 C 115.410156 173.320312 116.316406 172.414062 117.425781 172.414062 L 124.078125 172.414062 C 124.582031 172.414062 125.085938 172.617188 125.488281 172.917969 L 130.125 177.152344 C 130.929688 177.957031 131.03125 179.265625 130.222656 180.074219 C 129.820312 180.476562 129.316406 180.679688 128.8125 180.679688 Z M 128.8125 180.679688 "/><path style=" stroke:none;fill-rule:evenodd;fill:#00ff00;fill-opacity:1;" d="M 133.953125 194.992188 C 132.140625 194.992188 130.222656 194.6875 129.015625 192.972656 L 128.410156 192.167969 C 126.597656 189.648438 124.378906 186.828125 121.960938 186.828125 L 117.425781 186.828125 C 116.316406 186.828125 115.410156 185.917969 115.410156 184.8125 C 115.410156 183.703125 116.316406 182.796875 117.425781 182.796875 L 121.960938 182.796875 C 126.496094 182.796875 129.316406 186.625 131.636719 189.851562 L 132.242188 190.554688 C 132.644531 191.160156 134.355469 191.058594 135.769531 190.859375 C 136.472656 190.859375 137.078125 190.757812 137.683594 190.757812 C 138.792969 190.757812 139.699219 191.664062 139.699219 192.773438 C 139.699219 193.882812 138.792969 194.789062 137.683594 194.789062 C 137.179688 194.789062 136.675781 194.890625 136.070312 194.890625 C 135.464844 194.992188 134.660156 194.992188 133.953125 194.992188 Z M 133.953125 194.992188 "/><path style=" stroke:none;fill-rule:evenodd;fill:#00ff00;fill-opacity:1;" d="M 77.511719 120.507812 C 76.402344 120.507812 75.394531 120.40625 74.386719 120.40625 C 73.480469 120.40625 72.574219 120.40625 71.765625 120.40625 C 70.660156 120.40625 69.75 119.5 69.75 118.390625 C 69.75 117.28125 70.660156 116.375 71.765625 116.375 C 72.574219 116.375 73.582031 116.375 74.488281 116.375 C 76.605469 116.476562 79.023438 116.476562 80.839844 116.273438 C 83.457031 115.972656 85.273438 114.058594 87.390625 111.941406 C 90.210938 108.917969 93.839844 105.289062 100.695312 105.289062 L 107.34375 105.289062 C 108.453125 105.289062 109.363281 106.195312 109.363281 107.304688 C 109.363281 108.414062 108.453125 109.320312 107.34375 109.320312 L 100.695312 109.320312 C 95.554688 109.320312 93.035156 111.941406 90.210938 114.761719 C 87.894531 117.183594 85.375 119.800781 81.34375 120.304688 C 80.132812 120.40625 78.824219 120.507812 77.511719 120.507812 Z M 77.511719 120.507812 "/><path style=" stroke:none;fill-rule:evenodd;fill:#00ff00;fill-opacity:1;" d="M 73.378906 132.90625 C 72.777344 132.90625 72.273438 132.90625 71.667969 132.90625 C 70.558594 132.804688 69.75 131.796875 69.75 130.6875 C 69.851562 129.578125 70.859375 128.773438 71.96875 128.875 C 85.980469 129.78125 88.398438 116.878906 88.800781 111.234375 C 88.800781 110.128906 89.808594 109.320312 90.917969 109.421875 C 92.027344 109.421875 92.832031 110.429688 92.730469 111.539062 C 92.429688 116.679688 90.011719 132.90625 73.378906 132.90625 Z M 73.378906 132.90625 "/><path style=" stroke:none;fill-rule:evenodd;fill:#00ff00;fill-opacity:1;" d="M 96.160156 127.363281 C 95.753906 127.363281 95.351562 127.261719 94.949219 126.957031 C 94.042969 126.355469 93.839844 125.042969 94.445312 124.136719 C 94.847656 123.53125 95.25 123.027344 95.554688 122.523438 C 96.863281 120.40625 98.074219 118.59375 101.703125 118.59375 L 107.34375 118.59375 C 108.453125 118.59375 109.363281 119.5 109.363281 120.609375 C 109.363281 121.71875 108.453125 122.625 107.34375 122.625 L 101.703125 122.625 C 100.289062 122.625 100.191406 122.726562 98.980469 124.742188 C 98.578125 125.246094 98.273438 125.851562 97.769531 126.453125 C 97.367188 127.058594 96.761719 127.363281 96.160156 127.363281 Z M 96.160156 127.363281 "/><path style=" stroke:none;fill-rule:evenodd;fill:#00ff00;fill-opacity:1;" d="M 91.421875 143.085938 L 81.746094 143.085938 C 80.636719 143.085938 79.730469 142.175781 79.730469 141.070312 C 79.730469 139.960938 80.636719 139.054688 81.746094 139.054688 L 90.714844 139.054688 L 99.382812 132.300781 C 99.785156 131.996094 100.191406 131.898438 100.59375 131.898438 L 107.34375 131.898438 C 108.453125 131.898438 109.363281 132.804688 109.363281 133.914062 C 109.363281 135.023438 108.453125 135.929688 107.34375 135.929688 L 101.296875 135.929688 L 92.628906 142.679688 C 92.328125 142.984375 91.824219 143.085938 91.421875 143.085938 Z M 91.421875 143.085938 "/><path style=" stroke:none;fill-rule:evenodd;fill:#00ff00;fill-opacity:1;" d="M 107.34375 151.550781 L 89.003906 151.550781 C 87.894531 151.550781 86.988281 150.644531 86.988281 149.535156 C 86.988281 148.425781 87.894531 147.519531 89.003906 147.519531 L 107.34375 147.519531 C 108.453125 147.519531 109.363281 148.425781 109.363281 149.535156 C 109.363281 150.644531 108.453125 151.550781 107.34375 151.550781 Z M 107.34375 151.550781 "/><path style=" stroke:none;fill-rule:evenodd;fill:#00ff00;fill-opacity:1;" d="M 87.390625 160.824219 C 86.28125 160.824219 84.871094 160.722656 83.257812 160.722656 C 82.449219 160.722656 81.746094 160.621094 81.34375 160.621094 C 80.234375 160.621094 79.328125 159.714844 79.328125 158.605469 C 79.328125 157.496094 80.234375 156.589844 81.34375 156.589844 C 81.847656 156.589844 82.550781 156.691406 83.359375 156.691406 C 85.171875 156.792969 89.304688 156.890625 90.210938 156.589844 C 90.613281 156.488281 92.730469 155.378906 96.257812 148.628906 C 96.761719 147.621094 97.972656 147.316406 98.980469 147.820312 C 99.988281 148.324219 100.390625 149.535156 99.886719 150.542969 C 96.964844 156.085938 94.242188 159.414062 91.621094 160.421875 C 90.917969 160.722656 89.605469 160.824219 87.390625 160.824219 Z M 87.390625 160.824219 "/><path style=" stroke:none;fill-rule:evenodd;fill:#00ff00;fill-opacity:1;" d="M 75.394531 182.695312 C 74.085938 182.695312 72.675781 182.695312 71.0625 182.59375 C 70.15625 182.492188 69.347656 182.492188 68.84375 182.492188 C 67.636719 182.492188 66.828125 181.585938 66.828125 180.476562 C 66.828125 179.367188 67.636719 178.460938 68.84375 178.460938 C 69.449219 178.460938 70.355469 178.460938 71.363281 178.5625 C 73.28125 178.664062 78.417969 178.964844 79.328125 178.160156 C 79.730469 177.65625 80.132812 177.050781 80.535156 176.445312 C 84.46875 171.203125 89.808594 164.046875 96.257812 164.046875 L 107.34375 164.046875 C 108.453125 164.046875 109.363281 164.957031 109.363281 166.0625 C 109.363281 167.171875 108.453125 168.078125 107.34375 168.078125 L 96.257812 168.078125 C 91.824219 168.078125 87.1875 174.328125 83.863281 178.863281 C 83.359375 179.46875 82.953125 180.074219 82.550781 180.578125 C 81.242188 182.292969 78.722656 182.695312 75.394531 182.695312 Z M 75.394531 182.695312 "/><path style=" stroke:none;fill-rule:evenodd;fill:#00ff00;fill-opacity:1;" d="M 96.058594 180.679688 C 95.554688 180.679688 94.949219 180.476562 94.546875 180.074219 C 93.839844 179.265625 93.839844 177.957031 94.746094 177.25 L 99.382812 173.019531 C 99.6875 172.617188 100.191406 172.414062 100.695312 172.414062 L 107.34375 172.414062 C 108.453125 172.414062 109.363281 173.320312 109.363281 174.429688 C 109.363281 175.539062 108.453125 176.445312 107.34375 176.445312 L 101.5 176.445312 L 97.46875 180.175781 C 97.066406 180.578125 96.5625 180.679688 96.058594 180.679688 Z M 96.058594 180.679688 "/><path style=" stroke:none;fill-rule:evenodd;fill:#00ff00;fill-opacity:1;" d="M 90.917969 194.992188 C 90.109375 194.992188 89.40625 194.992188 88.699219 194.890625 C 88.195312 194.890625 87.691406 194.789062 87.1875 194.789062 C 86.078125 194.789062 85.171875 193.882812 85.171875 192.773438 C 85.171875 191.664062 86.078125 190.757812 87.1875 190.757812 C 87.792969 190.757812 88.398438 190.859375 89.101562 190.859375 C 90.414062 191.058594 92.125 191.160156 92.628906 190.554688 L 93.132812 189.851562 C 95.453125 186.625 98.375 182.796875 102.808594 182.796875 L 107.34375 182.796875 C 108.453125 182.796875 109.363281 183.703125 109.363281 184.8125 C 109.363281 185.917969 108.453125 186.828125 107.34375 186.828125 L 102.808594 186.828125 C 100.390625 186.828125 98.273438 189.648438 96.460938 192.167969 L 95.855469 192.972656 C 94.644531 194.6875 92.730469 194.992188 90.917969 194.992188 Z M 90.917969 194.992188 "/><g clip-rule="nonzero" clip-path="url(#d87b0e94e8)"><path style=" stroke:none;fill-rule:evenodd;fill:#00ff00;fill-opacity:1;" d="M 131.535156 97.628906 C 126.09375 97.628906 120.953125 95.613281 116.921875 92.085938 C 112.789062 94.605469 107.246094 94.503906 103.214844 91.785156 C 101.902344 90.976562 100.792969 89.867188 99.886719 88.660156 C 97.671875 90.273438 95.050781 91.179688 92.226562 91.179688 C 85.878906 91.179688 80.636719 86.542969 79.628906 80.394531 C 79.425781 80.496094 79.125 80.496094 78.824219 80.496094 C 71.867188 80.496094 66.125 74.75 66.125 67.695312 C 66.125 65.78125 66.527344 63.867188 67.332031 62.152344 C 66.628906 60.539062 66.222656 58.824219 66.222656 57.113281 C 66.222656 50.863281 70.660156 45.621094 76.605469 44.515625 C 76.707031 37.558594 82.449219 32.015625 89.40625 32.015625 C 90.917969 32.015625 92.429688 32.320312 93.839844 32.824219 C 96.058594 28.992188 100.289062 26.472656 104.824219 26.472656 C 107.546875 26.472656 110.167969 27.378906 112.285156 28.890625 C 113.796875 28.1875 115.507812 27.882812 117.121094 27.882812 C 121.054688 27.882812 124.582031 29.699219 126.898438 32.824219 C 127.503906 32.722656 128.109375 32.621094 128.8125 32.621094 C 134.457031 32.621094 139.394531 36.351562 141.109375 41.589844 C 141.410156 41.589844 141.613281 41.589844 141.816406 41.589844 C 147.054688 41.589844 151.390625 45.722656 151.589844 50.964844 C 156.128906 54.390625 158.746094 59.632812 158.746094 65.277344 C 158.746094 70.011719 156.832031 74.550781 153.605469 77.875 C 152.296875 88.960938 142.824219 97.628906 131.535156 97.628906 Z M 117.121094 87.449219 C 117.625 87.449219 118.128906 87.652344 118.53125 88.054688 C 121.960938 91.582031 126.597656 93.597656 131.535156 93.597656 C 140.90625 93.597656 148.871094 86.238281 149.574219 76.765625 C 149.675781 76.261719 149.878906 75.859375 150.28125 75.457031 C 153.101562 72.835938 154.714844 69.105469 154.714844 65.277344 C 154.714844 60.640625 152.398438 56.304688 148.46875 53.6875 C 147.863281 53.28125 147.558594 52.578125 147.558594 51.871094 C 147.558594 51.671875 147.558594 51.570312 147.558594 51.367188 C 147.558594 48.242188 145.039062 45.621094 141.816406 45.621094 C 141.210938 45.621094 140.707031 45.722656 140.203125 45.824219 C 139.597656 46.027344 139.09375 45.925781 138.589844 45.621094 C 138.085938 45.320312 137.785156 44.816406 137.683594 44.210938 C 136.976562 39.878906 133.25 36.652344 128.8125 36.652344 C 128.007812 36.652344 127.199219 36.753906 126.496094 36.953125 C 125.589844 37.257812 124.679688 36.855469 124.175781 36.046875 C 122.765625 33.527344 120.046875 31.914062 117.121094 31.914062 C 115.710938 31.914062 114.300781 32.320312 113.089844 33.023438 C 112.285156 33.425781 111.378906 33.328125 110.671875 32.824219 C 109.058594 31.3125 107.042969 30.503906 104.824219 30.503906 C 101.199219 30.503906 97.871094 32.824219 96.664062 36.148438 C 96.460938 36.753906 95.957031 37.15625 95.453125 37.359375 C 94.847656 37.558594 94.242188 37.457031 93.738281 37.257812 C 92.429688 36.449219 90.917969 36.046875 89.40625 36.046875 C 84.566406 36.046875 80.636719 39.980469 80.636719 44.816406 C 80.636719 45.21875 80.636719 45.621094 80.738281 46.027344 C 80.738281 46.628906 80.636719 47.132812 80.234375 47.636719 C 79.832031 48.042969 79.328125 48.34375 78.722656 48.34375 C 73.984375 48.445312 70.253906 52.375 70.253906 57.113281 C 70.253906 58.523438 70.660156 59.933594 71.363281 61.246094 C 71.667969 61.847656 71.667969 62.65625 71.363281 63.261719 C 70.558594 64.570312 70.15625 66.082031 70.15625 67.695312 C 70.15625 72.53125 74.085938 76.464844 78.824219 76.464844 C 79.628906 76.464844 80.335938 76.363281 81.039062 76.160156 C 81.644531 76.0625 82.25 76.160156 82.753906 76.566406 C 83.257812 76.96875 83.558594 77.574219 83.558594 78.175781 L 83.558594 78.378906 C 83.558594 83.214844 87.492188 87.148438 92.226562 87.148438 C 94.746094 87.148438 97.167969 86.039062 98.878906 84.125 C 99.28125 83.621094 99.988281 83.316406 100.695312 83.417969 C 101.398438 83.519531 101.902344 84.023438 102.207031 84.628906 C 102.910156 86.238281 104.019531 87.550781 105.429688 88.457031 C 108.554688 90.574219 112.890625 90.273438 115.8125 87.953125 C 116.214844 87.652344 116.617188 87.449219 117.121094 87.449219 Z M 117.121094 87.449219 "/></g><path style=" stroke:none;fill-rule:evenodd;fill:#00ff00;fill-opacity:1;" d="M 93.636719 66.082031 C 93.636719 66.082031 93.539062 66.082031 93.539062 66.082031 C 92.429688 66.082031 91.621094 65.074219 91.621094 63.964844 C 92.125 56.910156 87.894531 53.886719 87.792969 53.785156 C 86.886719 53.082031 86.582031 51.871094 87.289062 50.964844 C 87.894531 50.058594 89.101562 49.753906 90.011719 50.460938 C 90.3125 50.5625 96.257812 54.792969 95.652344 64.269531 C 95.554688 65.277344 94.746094 66.082031 93.636719 66.082031 Z M 93.636719 66.082031 "/><path style=" stroke:none;fill-rule:evenodd;fill:#00ff00;fill-opacity:1;" d="M 102.304688 74.449219 C 97.066406 74.449219 93.234375 67.796875 92.125 65.578125 C 89.707031 64.671875 84.667969 68.300781 81.847656 71.222656 C 81.039062 71.929688 79.832031 72.027344 79.023438 71.222656 C 78.21875 70.417969 78.21875 69.105469 79.023438 68.402344 C 80.03125 67.292969 89.003906 58.421875 94.746094 62.453125 C 95.050781 62.65625 95.351562 62.957031 95.453125 63.261719 C 96.761719 65.882812 100.191406 71.121094 102.910156 70.316406 C 104.019531 69.914062 105.128906 70.515625 105.429688 71.625 C 105.734375 72.734375 105.128906 73.84375 104.121094 74.144531 C 103.515625 74.347656 102.910156 74.449219 102.304688 74.449219 Z M 102.304688 74.449219 "/><path style=" stroke:none;fill-rule:evenodd;fill:#00ff00;fill-opacity:1;" d="M 100.390625 87.449219 C 99.28125 87.449219 98.375 86.542969 98.375 85.433594 C 98.375 84.929688 98.476562 73.84375 105.027344 65.980469 C 105.734375 65.175781 107.042969 65.074219 107.847656 65.78125 C 108.757812 66.484375 108.859375 67.695312 108.152344 68.601562 C 102.507812 75.253906 102.40625 85.332031 102.40625 85.433594 C 102.40625 86.542969 101.5 87.449219 100.390625 87.449219 Z M 100.390625 87.449219 "/><path style=" stroke:none;fill-rule:evenodd;fill:#00ff00;fill-opacity:1;" d="M 151.589844 78.984375 C 151.1875 78.984375 150.683594 78.78125 150.28125 78.480469 C 148.164062 76.566406 141.511719 72.128906 137.078125 73.640625 C 131.9375 75.558594 125.183594 76.867188 119.136719 71.222656 C 118.332031 70.417969 118.230469 69.207031 119.035156 68.402344 C 119.742188 67.59375 121.054688 67.492188 121.859375 68.300781 C 125.488281 71.625 129.519531 72.128906 135.769531 69.914062 C 143.226562 67.191406 152.5 75.054688 152.902344 75.457031 C 153.808594 76.160156 153.910156 77.371094 153.101562 78.277344 C 152.699219 78.679688 152.195312 78.984375 151.589844 78.984375 Z M 151.589844 78.984375 "/><path style=" stroke:none;fill-rule:evenodd;fill:#00ff00;fill-opacity:1;" d="M 123.371094 82.109375 C 122.765625 82.109375 122.160156 81.804688 121.757812 81.199219 C 121.152344 80.292969 121.355469 78.984375 122.261719 78.378906 L 133.652344 70.921875 C 134.660156 70.316406 135.867188 70.617188 136.472656 71.523438 C 137.078125 72.433594 136.875 73.640625 135.867188 74.246094 L 124.480469 81.804688 C 124.175781 82.007812 123.773438 82.109375 123.371094 82.109375 Z M 123.371094 82.109375 "/><path style=" stroke:none;fill-rule:evenodd;fill:#00ff00;fill-opacity:1;" d="M 135.667969 62.152344 C 134.960938 62.152344 134.257812 61.847656 133.851562 61.144531 C 133.347656 60.238281 133.652344 59.027344 134.558594 58.421875 L 148.566406 49.957031 C 149.574219 49.453125 150.785156 49.753906 151.390625 50.664062 C 151.894531 51.671875 151.589844 52.878906 150.683594 53.484375 L 136.675781 61.847656 C 136.371094 62.050781 135.96875 62.152344 135.667969 62.152344 Z M 135.667969 62.152344 "/><path style=" stroke:none;fill-rule:evenodd;fill:#00ff00;fill-opacity:1;" d="M 129.117188 51.066406 C 128.511719 51.066406 127.90625 50.863281 127.503906 50.359375 C 122.261719 44.011719 123.875 35.039062 123.976562 34.636719 C 124.175781 33.628906 125.183594 32.824219 126.292969 33.023438 C 127.402344 33.328125 128.109375 34.335938 127.90625 35.441406 C 127.90625 35.542969 126.597656 42.902344 130.628906 47.839844 C 131.332031 48.644531 131.230469 49.957031 130.324219 50.664062 C 130.023438 50.964844 129.519531 51.066406 129.117188 51.066406 Z M 129.117188 51.066406 "/><path style=" stroke:none;fill-rule:evenodd;fill:#00ff00;fill-opacity:1;" d="M 117.222656 60.742188 C 116.113281 60.742188 115.207031 59.832031 115.207031 58.726562 C 115.207031 58.222656 115.207031 46.328125 125.589844 41.792969 C 126.597656 41.390625 127.804688 41.894531 128.207031 42.902344 C 128.710938 43.910156 128.207031 45.117188 127.199219 45.523438 C 119.238281 48.949219 119.238281 58.625 119.238281 58.726562 C 119.238281 59.832031 118.332031 60.742188 117.222656 60.742188 Z M 117.222656 60.742188 "/><path style=" stroke:none;fill-rule:evenodd;fill:#00ff00;fill-opacity:1;" d="M 118.230469 54.894531 C 117.523438 54.894531 116.820312 54.59375 116.515625 53.886719 C 113.492188 48.445312 108.554688 48.644531 108.554688 48.644531 C 107.445312 48.746094 106.4375 47.839844 106.4375 46.730469 C 106.335938 45.621094 107.246094 44.714844 108.355469 44.613281 C 108.65625 44.613281 115.8125 44.3125 120.046875 51.972656 C 120.550781 52.878906 120.246094 54.089844 119.238281 54.695312 C 118.9375 54.894531 118.632812 54.894531 118.230469 54.894531 Z M 118.230469 54.894531 "/><path style=" stroke:none;fill-rule:evenodd;fill:#00ff00;fill-opacity:1;" d="M 101.097656 53.785156 C 100.289062 53.785156 99.484375 53.28125 99.183594 52.476562 L 92.832031 36.148438 C 92.429688 35.140625 92.933594 34.03125 94.042969 33.628906 C 95.050781 33.226562 96.257812 33.730469 96.664062 34.738281 L 102.910156 51.066406 C 103.3125 52.074219 102.808594 53.183594 101.800781 53.585938 C 101.601562 53.6875 101.296875 53.785156 101.097656 53.785156 Z M 101.097656 53.785156 "/></g></svg>