<svg xmlns="http://www.w3.org/2000/svg" xmlns:xlink="http://www.w3.org/1999/xlink" width="300" zoomAndPan="magnify" viewBox="0 0 224.87999 225" height="300" preserveAspectRatio="xMidYMid meet" version="1.2"><defs/><g id="438cc57361"><g style="fill:#000000;fill-opacity:1;"><g transform="translate(105.710224, 108.328567)"><path style="stroke:none" d="M 2.75 0 L 2.65625 -0.5 L 2.625 -0.5 C 2.445312 -0.28125 2.269531 -0.128906 2.09375 -0.046875 C 1.914062 0.0234375 1.695312 0.0625 1.4375 0.0625 C 1.082031 0.0625 0.804688 -0.0234375 0.609375 -0.203125 C 0.410156 -0.390625 0.3125 -0.648438 0.3125 -0.984375 C 0.3125 -1.703125 0.882812 -2.078125 2.03125 -2.109375 L 2.625 -2.125 L 2.625 -2.34375 C 2.625 -2.625 2.5625 -2.832031 2.4375 -2.96875 C 2.320312 -3.101562 2.132812 -3.171875 1.875 -3.171875 C 1.582031 -3.171875 1.25 -3.078125 0.875 -2.890625 L 0.703125 -3.3125 C 0.878906 -3.40625 1.070312 -3.476562 1.28125 -3.53125 C 1.488281 -3.582031 1.695312 -3.609375 1.90625 -3.609375 C 2.332031 -3.609375 2.644531 -3.515625 2.84375 -3.328125 C 3.050781 -3.140625 3.15625 -2.835938 3.15625 -2.421875 L 3.15625 0 Z M 1.546875 -0.375 C 1.878906 -0.375 2.140625 -0.46875 2.328125 -0.65625 C 2.515625 -0.84375 2.609375 -1.097656 2.609375 -1.421875 L 2.609375 -1.75 L 2.078125 -1.71875 C 1.648438 -1.707031 1.34375 -1.640625 1.15625 -1.515625 C 0.96875 -1.398438 0.875 -1.21875 0.875 -0.96875 C 0.875 -0.78125 0.929688 -0.632812 1.046875 -0.53125 C 1.160156 -0.425781 1.328125 -0.375 1.546875 -0.375 Z M 1.546875 -0.375 "/></g></g><path style=" stroke:none;fill-rule:nonzero;fill:#00ff00;fill-opacity:1;" d="M 55.0625 153.636719 C 52.023438 153.636719 50 152.625 47.972656 150.597656 L 7.472656 110.101562 C 3.425781 106.050781 3.425781 99.976562 7.472656 95.925781 L 47.972656 55.425781 C 52.023438 51.375 58.097656 51.375 62.148438 55.425781 C 66.199219 59.476562 66.199219 65.550781 62.148438 69.601562 L 28.738281 103.011719 L 62.148438 136.425781 C 66.199219 140.472656 66.199219 146.550781 62.148438 150.597656 C 60.125 152.625 58.097656 153.636719 55.0625 153.636719 Z M 55.0625 153.636719 "/><path style=" stroke:none;fill-rule:nonzero;fill:#00ff00;fill-opacity:1;" d="M 156.308594 153.636719 C 153.273438 153.636719 151.246094 152.625 149.222656 150.597656 C 145.171875 146.550781 145.171875 140.472656 149.222656 136.425781 L 182.632812 103.011719 L 149.222656 69.601562 C 145.171875 65.550781 145.171875 59.476562 149.222656 55.425781 C 153.273438 51.375 159.347656 51.375 163.398438 55.425781 L 203.898438 95.925781 C 207.945312 99.976562 207.945312 106.050781 203.898438 110.101562 L 163.398438 150.597656 C 161.371094 152.625 159.347656 153.636719 156.308594 153.636719 Z M 156.308594 153.636719 "/><path style=" stroke:none;fill-rule:nonzero;fill:#00ff00;fill-opacity:1;" d="M 85.4375 173.886719 C 84.421875 173.886719 83.410156 173.886719 82.398438 172.875 C 77.335938 170.847656 74.296875 165.785156 76.324219 159.710938 L 116.824219 38.214844 C 118.847656 33.152344 123.910156 30.113281 129.984375 32.136719 C 135.046875 34.164062 138.085938 39.226562 136.058594 45.300781 L 95.5625 166.800781 C 93.535156 170.847656 89.484375 173.886719 85.4375 173.886719 Z M 85.4375 173.886719 "/></g></svg>