<svg xmlns="http://www.w3.org/2000/svg" xmlns:xlink="http://www.w3.org/1999/xlink" width="300" zoomAndPan="magnify" viewBox="0 0 224.87999 225" height="300" preserveAspectRatio="xMidYMid meet" version="1.2"><defs><clipPath id="27921db534"><path d="M 35.609375 34.257812 L 183 34.257812 L 183 177.429688 L 35.609375 177.429688 Z M 35.609375 34.257812 "/></clipPath></defs><g id="354eb05bea"><g style="fill:#000000;fill-opacity:1;"><g transform="translate(105.710224, 108.328567)"><path style="stroke:none" d="M 2.75 0 L 2.65625 -0.5 L 2.625 -0.5 C 2.445312 -0.28125 2.269531 -0.128906 2.09375 -0.046875 C 1.914062 0.0234375 1.695312 0.0625 1.4375 0.0625 C 1.082031 0.0625 0.804688 -0.0234375 0.609375 -0.203125 C 0.410156 -0.390625 0.3125 -0.648438 0.3125 -0.984375 C 0.3125 -1.703125 0.882812 -2.078125 2.03125 -2.109375 L 2.625 -2.125 L 2.625 -2.34375 C 2.625 -2.625 2.5625 -2.832031 2.4375 -2.96875 C 2.320312 -3.101562 2.132812 -3.171875 1.875 -3.171875 C 1.582031 -3.171875 1.25 -3.078125 0.875 -2.890625 L 0.703125 -3.3125 C 0.878906 -3.40625 1.070312 -3.476562 1.28125 -3.53125 C 1.488281 -3.582031 1.695312 -3.609375 1.90625 -3.609375 C 2.332031 -3.609375 2.644531 -3.515625 2.84375 -3.328125 C 3.050781 -3.140625 3.15625 -2.835938 3.15625 -2.421875 L 3.15625 0 Z M 1.546875 -0.375 C 1.878906 -0.375 2.140625 -0.46875 2.328125 -0.65625 C 2.515625 -0.84375 2.609375 -1.097656 2.609375 -1.421875 L 2.609375 -1.75 L 2.078125 -1.71875 C 1.648438 -1.707031 1.34375 -1.640625 1.15625 -1.515625 C 0.96875 -1.398438 0.875 -1.21875 0.875 -0.96875 C 0.875 -0.78125 0.929688 -0.632812 1.046875 -0.53125 C 1.160156 -0.425781 1.328125 -0.375 1.546875 -0.375 Z M 1.546875 -0.375 "/></g></g><g clip-rule="nonzero" clip-path="url(#27921db534)"><path style=" stroke:none;fill-rule:nonzero;fill:#00ff00;fill-opacity:1;" d="M 180.648438 167.9375 C 182.195312 167.644531 183.1875 166.171875 182.964844 164.664062 C 181.273438 154.214844 178.699219 140.820312 176.195312 139.203125 C 173.769531 137.65625 140.175781 127.429688 129.800781 124.300781 C 127.777344 123.675781 126.304688 121.945312 126.046875 119.851562 C 125.863281 118.339844 125.863281 116.90625 125.9375 115.582031 C 125.972656 115.140625 126.121094 114.699219 126.414062 114.332031 C 128.035156 112.195312 129.507812 109.914062 130.941406 107.671875 C 132.117188 105.832031 132.929688 104.140625 133.296875 102.003906 C 133.371094 101.601562 133.589844 100.863281 133.738281 100.128906 C 133.921875 99.207031 134.765625 98.582031 135.6875 98.695312 C 137.234375 98.839844 138.960938 98.179688 140.066406 97 C 141.683594 95.308594 142.308594 92.878906 142.75 90.5625 C 143.191406 88.097656 143.488281 85.632812 143.632812 83.128906 C 143.746094 80.960938 143.632812 78.566406 142.164062 76.984375 C 141.132812 75.917969 140.066406 75.773438 138.851562 76.433594 C 138.300781 76.726562 137.636719 76.472656 137.417969 75.917969 C 138.152344 73.417969 139.550781 63.445312 139.292969 60.539062 C 139.074219 58.257812 138.703125 56.199219 138.226562 54.320312 C 136.277344 47 132.082031 42.914062 127.296875 40.304688 C 127.039062 40.15625 126.785156 40.007812 126.527344 39.898438 C 121.042969 37.101562 115.230469 35.519531 110.078125 34.96875 C 103.164062 34.269531 97.421875 35.519531 95.25 38.425781 C 94.625 39.234375 94.296875 40.191406 94.296875 41.257812 C 94.296875 41.257812 89.804688 40.007812 85.683594 42.289062 C 85.574219 42.363281 85.464844 42.398438 85.390625 42.472656 C 85.242188 42.546875 85.097656 42.65625 84.949219 42.730469 C 83.550781 43.652344 82.226562 45.050781 81.195312 47.074219 C 77.847656 53.546875 79.210938 62.414062 79.984375 65.949219 C 79.984375 66.023438 80.019531 66.09375 80.019531 66.132812 C 80.203125 66.90625 81.308594 74.226562 81.527344 75.808594 C 81.34375 76.398438 80.609375 76.726562 80.019531 76.359375 C 78.730469 75.625 77.773438 75.917969 76.746094 76.984375 C 75.234375 78.566406 75.125 80.960938 75.234375 83.128906 C 75.347656 85.632812 75.640625 88.097656 76.121094 90.5625 C 76.5625 92.878906 77.1875 95.308594 78.804688 97 C 79.910156 98.179688 81.636719 98.839844 83.183594 98.695312 C 84.101562 98.582031 84.949219 99.207031 85.132812 100.128906 C 85.28125 100.902344 85.5 101.601562 85.574219 102.003906 C 85.980469 104.175781 86.753906 105.832031 87.929688 107.671875 C 89.363281 109.914062 90.835938 112.195312 92.457031 114.332031 C 92.75 114.699219 92.898438 115.140625 92.933594 115.582031 C 93.007812 116.941406 92.96875 118.378906 92.824219 119.886719 C 92.566406 121.984375 91.09375 123.75 89.070312 124.339844 C 78.695312 127.464844 45.101562 137.695312 42.675781 139.238281 C 40.136719 140.859375 37.558594 154.25 35.867188 164.699219 C 35.609375 166.246094 36.640625 167.679688 38.183594 167.976562 L 64.050781 173.015625 C 79.0625 175.921875 94.257812 177.394531 109.453125 177.394531 C 124.648438 177.394531 139.84375 175.921875 154.855469 173.015625 Z M 180.648438 167.9375 "/></g></g></svg>