<svg xmlns="http://www.w3.org/2000/svg" xmlns:xlink="http://www.w3.org/1999/xlink" width="300" zoomAndPan="magnify" viewBox="0 0 224.87999 225" height="300" preserveAspectRatio="xMidYMid meet" version="1.2"><defs><clipPath id="2e329a92fd"><path d="M 44.976562 42.125 L 179.902344 42.125 L 179.902344 177.054688 L 44.976562 177.054688 Z M 44.976562 42.125 "/></clipPath></defs><g id="17021a54e1"><g style="fill:#000000;fill-opacity:1;"><g transform="translate(44.975996, 139.336297)"><path style="stroke:none" d="M 4.140625 0 L 3.984375 -0.765625 L 3.9375 -0.765625 C 3.675781 -0.429688 3.410156 -0.203125 3.140625 -0.078125 C 2.878906 0.0351562 2.550781 0.09375 2.15625 0.09375 C 1.625 0.09375 1.207031 -0.0390625 0.90625 -0.3125 C 0.601562 -0.582031 0.453125 -0.972656 0.453125 -1.484375 C 0.453125 -2.554688 1.316406 -3.117188 3.046875 -3.171875 L 3.953125 -3.203125 L 3.953125 -3.53125 C 3.953125 -3.945312 3.859375 -4.253906 3.671875 -4.453125 C 3.492188 -4.660156 3.207031 -4.765625 2.8125 -4.765625 C 2.375 -4.765625 1.875 -4.628906 1.3125 -4.359375 L 1.0625 -4.96875 C 1.320312 -5.113281 1.609375 -5.226562 1.921875 -5.3125 C 2.234375 -5.394531 2.546875 -5.4375 2.859375 -5.4375 C 3.503906 -5.4375 3.976562 -5.289062 4.28125 -5 C 4.59375 -4.71875 4.75 -4.265625 4.75 -3.640625 L 4.75 0 Z M 2.3125 -0.578125 C 2.820312 -0.578125 3.21875 -0.710938 3.5 -0.984375 C 3.789062 -1.265625 3.9375 -1.648438 3.9375 -2.140625 L 3.9375 -2.625 L 3.125 -2.59375 C 2.476562 -2.570312 2.015625 -2.472656 1.734375 -2.296875 C 1.453125 -2.117188 1.3125 -1.84375 1.3125 -1.46875 C 1.3125 -1.175781 1.398438 -0.953125 1.578125 -0.796875 C 1.753906 -0.648438 2 -0.578125 2.3125 -0.578125 Z M 2.3125 -0.578125 "/></g></g><path style=" stroke:none;fill-rule:nonzero;fill:#00ff00;fill-opacity:1;" d="M 132.652344 117.324219 C 131.125 117.324219 129.671875 117.78125 128.433594 118.625 C 127.15625 117.683594 125.625 117.148438 124.003906 117.148438 C 122 117.148438 120.117188 117.929688 118.699219 119.347656 C 118.039062 120.007812 118.039062 121.074219 118.699219 121.734375 C 119.355469 122.390625 120.425781 122.390625 121.082031 121.734375 C 122.644531 120.171875 125.367188 120.171875 126.925781 121.734375 C 127.707031 122.515625 128.136719 123.550781 128.136719 124.65625 C 128.136719 125.757812 127.707031 126.796875 126.925781 127.578125 C 126.269531 128.238281 126.269531 129.304688 126.925781 129.960938 C 127.257812 130.292969 127.6875 130.457031 128.121094 130.457031 C 128.550781 130.457031 128.984375 130.292969 129.3125 129.960938 C 130.730469 128.542969 131.511719 126.660156 131.511719 124.65625 C 131.511719 123.445312 131.195312 122.292969 130.65625 121.246094 C 132.222656 120.410156 134.289062 120.621094 135.574219 121.90625 C 135.90625 122.238281 136.335938 122.402344 136.769531 122.402344 C 137.199219 122.402344 137.632812 122.238281 137.960938 121.90625 C 138.621094 121.25 138.621094 120.179688 137.960938 119.523438 C 136.542969 118.105469 134.65625 117.324219 132.652344 117.324219 Z M 132.652344 117.324219 "/><path style=" stroke:none;fill-rule:nonzero;fill:#00ff00;fill-opacity:1;" d="M 146.125 112.464844 C 145.710938 112.03125 145.265625 111.628906 144.792969 111.261719 C 146.886719 109.765625 148.238281 107.316406 148.238281 104.625 C 148.238281 100.9375 145.777344 97.804688 142.414062 96.789062 C 143.1875 94.132812 143.054688 91.277344 141.996094 88.550781 C 140.757812 85.367188 138.101562 82.792969 134.894531 81.667969 C 132.261719 80.742188 129.574219 80.65625 127.09375 81.363281 C 127.207031 80.046875 127 78.683594 126.453125 77.363281 C 125.617188 75.328125 123.945312 73.738281 121.871094 73 C 119.226562 72.058594 116.4375 72.417969 114.222656 73.980469 C 113.53125 74.46875 112.941406 75.0625 112.441406 75.722656 C 111.941406 75.0625 111.347656 74.46875 110.65625 73.980469 C 108.445312 72.417969 105.65625 72.058594 103.007812 73 C 100.933594 73.738281 99.261719 75.328125 98.425781 77.363281 C 97.882812 78.683594 97.671875 80.046875 97.785156 81.363281 C 95.308594 80.65625 92.617188 80.742188 89.988281 81.667969 C 86.777344 82.792969 84.121094 85.367188 82.886719 88.550781 C 81.824219 91.277344 81.691406 94.132812 82.46875 96.789062 C 79.101562 97.804688 76.640625 100.9375 76.640625 104.625 C 76.640625 107.316406 77.992188 109.765625 80.085938 111.261719 C 79.613281 111.628906 79.167969 112.03125 78.753906 112.464844 C 76.53125 114.785156 75.308594 117.828125 75.308594 121.039062 C 75.308594 126.425781 78.742188 131.097656 83.703125 132.78125 C 83.238281 134.847656 83.464844 136.992188 84.378906 139.074219 C 85.339844 141.25 87.167969 143.023438 89.390625 143.941406 C 92.019531 145.027344 94.75 145.011719 97.214844 143.921875 C 99.097656 145.730469 101.539062 146.691406 104.09375 146.691406 C 105.386719 146.691406 106.707031 146.445312 108.003906 145.941406 C 109.835938 145.226562 111.367188 143.9375 112.441406 142.308594 C 113.511719 143.9375 115.042969 145.226562 116.878906 145.941406 C 118.171875 146.445312 119.492188 146.691406 120.785156 146.691406 C 123.34375 146.691406 125.78125 145.730469 127.664062 143.921875 C 130.132812 145.011719 132.863281 145.027344 135.488281 143.941406 C 137.714844 143.023438 139.539062 141.25 140.5 139.074219 C 141.417969 136.992188 141.640625 134.847656 141.175781 132.78125 C 146.136719 131.097656 149.570312 126.425781 149.570312 121.039062 C 149.570312 117.828125 148.347656 114.785156 146.125 112.464844 Z M 106.777344 142.796875 C 103.246094 144.171875 100.394531 142.65625 98.90625 140.777344 C 98.574219 140.359375 98.082031 140.140625 97.582031 140.140625 C 97.277344 140.140625 96.972656 140.21875 96.699219 140.390625 C 95.40625 141.1875 93.3125 141.910156 90.675781 140.824219 C 89.25 140.234375 88.078125 139.101562 87.46875 137.714844 C 86.453125 135.40625 86.875 133.488281 87.410156 132.285156 C 87.621094 131.808594 87.601562 131.265625 87.355469 130.804688 C 87.109375 130.347656 86.667969 130.027344 86.15625 129.9375 C 81.824219 129.179688 78.679688 125.4375 78.679688 121.039062 C 78.679688 118.703125 79.570312 116.488281 81.1875 114.800781 C 82.109375 113.835938 83.25 113.078125 84.484375 112.601562 C 85.199219 112.328125 85.640625 111.605469 85.554688 110.84375 C 85.472656 110.082031 84.882812 109.472656 84.125 109.359375 C 81.742188 109.007812 80.015625 107.015625 80.015625 104.625 C 80.015625 101.980469 82.164062 99.824219 84.808594 99.8125 C 85.394531 99.808594 85.933594 99.503906 86.238281 99.007812 C 86.542969 98.511719 86.570312 97.890625 86.308594 97.367188 C 85.476562 95.714844 84.753906 93.054688 86.027344 89.773438 C 86.914062 87.492188 88.8125 85.652344 91.105469 84.847656 C 94.25 83.742188 97.492188 84.25 99.992188 86.230469 C 100.675781 86.769531 101.660156 86.703125 102.257812 86.074219 C 102.859375 85.445312 102.886719 84.460938 102.316406 83.804688 C 101.070312 82.363281 100.789062 80.484375 101.542969 78.648438 C 102.011719 77.511719 102.980469 76.589844 104.136719 76.179688 C 105.738281 75.609375 107.402344 75.8125 108.710938 76.738281 C 109.988281 77.640625 110.753906 79.109375 110.753906 80.675781 L 110.753906 126.195312 C 109.265625 125.027344 107.417969 124.300781 105.382812 124.300781 C 100.5625 124.300781 96.640625 128.222656 96.640625 133.042969 C 96.640625 133.972656 97.394531 134.726562 98.328125 134.726562 C 99.257812 134.726562 100.015625 133.972656 100.015625 133.042969 C 100.015625 130.082031 102.421875 127.671875 105.382812 127.671875 C 108.34375 127.671875 110.753906 130.082031 110.753906 133.042969 L 110.753906 136.65625 C 110.753906 139.402344 109.15625 141.871094 106.777344 142.796875 Z M 138.722656 129.9375 C 138.210938 130.027344 137.769531 130.347656 137.523438 130.804688 C 137.28125 131.265625 137.261719 131.808594 137.472656 132.285156 C 138.003906 133.488281 138.429688 135.40625 137.414062 137.714844 C 136.800781 139.101562 135.632812 140.234375 134.203125 140.824219 C 131.566406 141.910156 129.476562 141.1875 128.183594 140.390625 C 127.453125 139.941406 126.507812 140.109375 125.976562 140.777344 C 124.484375 142.65625 121.636719 144.171875 118.101562 142.796875 C 115.722656 141.871094 114.125 139.402344 114.125 136.65625 L 114.125 102.949219 C 115.613281 104.117188 117.460938 104.84375 119.496094 104.84375 C 124.316406 104.84375 128.238281 100.921875 128.238281 96.101562 C 128.238281 95.171875 127.484375 94.414062 126.550781 94.414062 C 125.621094 94.414062 124.867188 95.171875 124.867188 96.101562 C 124.867188 99.0625 122.457031 101.472656 119.496094 101.472656 C 116.535156 101.472656 114.125 99.0625 114.125 96.101562 L 114.125 80.675781 C 114.125 79.109375 114.890625 77.640625 116.167969 76.738281 C 116.988281 76.160156 117.949219 75.863281 118.945312 75.863281 C 119.539062 75.863281 120.144531 75.96875 120.742188 76.179688 C 121.898438 76.589844 122.867188 77.511719 123.335938 78.648438 C 124.089844 80.484375 123.808594 82.363281 122.5625 83.804688 C 121.996094 84.460938 122.019531 85.445312 122.621094 86.074219 C 123.222656 86.703125 124.203125 86.769531 124.886719 86.230469 C 127.386719 84.246094 130.625 83.746094 133.777344 84.847656 C 136.066406 85.652344 137.964844 87.492188 138.851562 89.773438 C 140.125 93.054688 139.402344 95.714844 138.570312 97.367188 C 138.308594 97.890625 138.335938 98.511719 138.640625 99.007812 C 138.945312 99.503906 139.488281 99.808594 140.070312 99.8125 C 142.714844 99.824219 144.863281 101.980469 144.863281 104.625 C 144.863281 107.015625 143.136719 109.007812 140.753906 109.359375 C 139.996094 109.472656 139.410156 110.082031 139.324219 110.84375 C 139.242188 111.605469 139.679688 112.328125 140.394531 112.601562 C 141.628906 113.078125 142.769531 113.835938 143.691406 114.800781 C 145.308594 116.488281 146.199219 118.703125 146.199219 121.039062 C 146.199219 125.4375 143.054688 129.179688 138.722656 129.9375 Z M 138.722656 129.9375 "/><path style=" stroke:none;fill-rule:nonzero;fill:#00ff00;fill-opacity:1;" d="M 99.886719 109.671875 C 99.886719 110.605469 100.640625 111.359375 101.570312 111.359375 C 102.503906 111.359375 103.257812 110.605469 103.257812 109.671875 C 103.257812 107.03125 101.878906 104.714844 99.8125 103.378906 C 99.820312 103.367188 99.828125 103.363281 99.835938 103.355469 C 102.761719 100.429688 102.761719 95.667969 99.835938 92.738281 C 99.179688 92.082031 98.109375 92.082031 97.453125 92.738281 C 96.792969 93.398438 96.792969 94.464844 97.453125 95.125 C 99.0625 96.734375 99.0625 99.359375 97.453125 100.96875 C 95.839844 102.582031 93.21875 102.582031 91.605469 100.96875 C 90.949219 100.3125 89.878906 100.3125 89.222656 100.96875 C 88.5625 101.628906 88.5625 102.695312 89.222656 103.355469 C 90.683594 104.820312 92.609375 105.550781 94.53125 105.550781 C 94.820312 105.550781 95.105469 105.5 95.390625 105.46875 C 95.511719 105.492188 95.625 105.539062 95.75 105.539062 C 98.03125 105.539062 99.886719 107.394531 99.886719 109.671875 Z M 99.886719 109.671875 "/><g clip-rule="nonzero" clip-path="url(#2e329a92fd)"><path style=" stroke:none;fill-rule:nonzero;fill:#00ff00;fill-opacity:1;" d="M 178.21875 111.277344 C 179.148438 111.277344 179.902344 110.523438 179.902344 109.589844 C 179.902344 108.660156 179.148438 107.902344 178.21875 107.902344 L 163.039062 107.902344 L 163.039062 84.292969 L 171.828125 84.292969 C 172.476562 85.78125 173.960938 86.820312 175.6875 86.820312 C 178.015625 86.820312 179.902344 84.933594 179.902344 82.605469 C 179.902344 80.277344 178.015625 78.390625 175.6875 78.390625 C 173.960938 78.390625 172.476562 79.429688 171.828125 80.917969 L 163.039062 80.917969 L 163.039062 67.425781 C 163.039062 62.777344 159.253906 58.992188 154.605469 58.992188 L 141.121094 58.992188 L 141.121094 43.8125 C 141.121094 42.882812 140.363281 42.125 139.433594 42.125 C 138.5 42.125 137.746094 42.882812 137.746094 43.8125 L 137.746094 58.992188 L 114.132812 58.992188 L 114.132812 43.8125 C 114.132812 42.882812 113.378906 42.125 112.449219 42.125 C 111.515625 42.125 110.761719 42.882812 110.761719 43.8125 L 110.761719 58.992188 L 87.148438 58.992188 L 87.148438 50.203125 C 88.636719 49.554688 89.679688 48.070312 89.679688 46.34375 C 89.679688 44.015625 87.789062 42.125 85.460938 42.125 C 83.132812 42.125 81.246094 44.015625 81.246094 46.34375 C 81.246094 48.070312 82.289062 49.550781 83.773438 50.203125 L 83.773438 58.992188 L 70.273438 58.992188 C 65.625 58.992188 61.84375 62.777344 61.84375 67.425781 L 61.84375 80.917969 L 46.664062 80.917969 C 45.730469 80.917969 44.976562 81.675781 44.976562 82.605469 C 44.976562 83.535156 45.730469 84.292969 46.664062 84.292969 L 61.84375 84.292969 L 61.84375 107.902344 L 46.664062 107.902344 C 45.730469 107.902344 44.976562 108.660156 44.976562 109.589844 C 44.976562 110.523438 45.730469 111.277344 46.664062 111.277344 L 61.84375 111.277344 L 61.84375 134.890625 L 53.054688 134.890625 C 52.402344 133.402344 50.921875 132.359375 49.191406 132.359375 C 46.863281 132.359375 44.976562 134.246094 44.976562 136.578125 C 44.976562 138.90625 46.863281 140.792969 49.191406 140.792969 C 50.921875 140.792969 52.402344 139.75 53.054688 138.261719 L 61.84375 138.261719 L 61.84375 151.757812 C 61.84375 156.40625 65.625 160.1875 70.273438 160.1875 L 83.769531 160.1875 L 83.769531 168.996094 C 82.285156 169.648438 81.246094 171.128906 81.246094 172.851562 C 81.246094 175.179688 83.132812 177.070312 85.460938 177.070312 C 87.789062 177.070312 89.679688 175.179688 89.679688 172.851562 C 89.679688 171.121094 88.632812 169.636719 87.140625 168.988281 L 87.140625 160.1875 L 110.753906 160.1875 L 110.753906 175.367188 C 110.753906 176.300781 111.507812 177.054688 112.441406 177.054688 C 113.371094 177.054688 114.125 176.300781 114.125 175.367188 L 114.125 160.1875 L 137.738281 160.1875 L 137.738281 175.367188 C 137.738281 176.300781 138.496094 177.054688 139.425781 177.054688 C 140.355469 177.054688 141.113281 176.300781 141.113281 175.367188 L 141.113281 160.1875 L 154.605469 160.1875 C 159.253906 160.1875 163.039062 156.40625 163.039062 151.757812 L 163.039062 138.261719 L 178.21875 138.261719 C 179.148438 138.261719 179.902344 137.507812 179.902344 136.578125 C 179.902344 135.644531 179.148438 134.890625 178.21875 134.890625 L 163.039062 134.890625 L 163.039062 111.277344 Z M 159.664062 151.757812 C 159.664062 154.546875 157.394531 156.816406 154.605469 156.816406 L 70.273438 156.816406 C 67.484375 156.816406 65.214844 154.546875 65.214844 151.757812 L 65.214844 67.425781 C 65.214844 64.636719 67.484375 62.367188 70.273438 62.367188 L 154.605469 62.367188 C 157.394531 62.367188 159.664062 64.636719 159.664062 67.425781 Z M 159.664062 151.757812 "/></g></g></svg>