<svg xmlns="http://www.w3.org/2000/svg" xmlns:xlink="http://www.w3.org/1999/xlink" width="300" zoomAndPan="magnify" viewBox="0 0 224.87999 225" height="300" preserveAspectRatio="xMidYMid meet" version="1.2"><defs><clipPath id="d5aec16b2c"><path d="M 41.988281 37.523438 L 179.914062 37.523438 L 179.914062 187.441406 L 41.988281 187.441406 Z M 41.988281 37.523438 "/></clipPath></defs><g id="e22d7d4fa8"><g style="fill:#000000;fill-opacity:1;"><g transform="translate(41.986534, 129.569784)"><path style="stroke:none" d="M 2.75 0 L 2.65625 -0.5 L 2.625 -0.5 C 2.445312 -0.28125 2.269531 -0.128906 2.09375 -0.046875 C 1.914062 0.0234375 1.695312 0.0625 1.4375 0.0625 C 1.082031 0.0625 0.804688 -0.0234375 0.609375 -0.203125 C 0.410156 -0.390625 0.3125 -0.648438 0.3125 -0.984375 C 0.3125 -1.703125 0.882812 -2.078125 2.03125 -2.109375 L 2.625 -2.125 L 2.625 -2.34375 C 2.625 -2.625 2.5625 -2.832031 2.4375 -2.96875 C 2.320312 -3.101562 2.132812 -3.171875 1.875 -3.171875 C 1.582031 -3.171875 1.25 -3.078125 0.875 -2.890625 L 0.703125 -3.3125 C 0.878906 -3.40625 1.070312 -3.476562 1.28125 -3.53125 C 1.488281 -3.582031 1.695312 -3.609375 1.90625 -3.609375 C 2.332031 -3.609375 2.644531 -3.515625 2.84375 -3.328125 C 3.050781 -3.140625 3.15625 -2.835938 3.15625 -2.421875 L 3.15625 0 Z M 1.546875 -0.375 C 1.878906 -0.375 2.140625 -0.46875 2.328125 -0.65625 C 2.515625 -0.84375 2.609375 -1.097656 2.609375 -1.421875 L 2.609375 -1.75 L 2.078125 -1.71875 C 1.648438 -1.707031 1.34375 -1.640625 1.15625 -1.515625 C 0.96875 -1.398438 0.875 -1.21875 0.875 -0.96875 C 0.875 -0.78125 0.929688 -0.632812 1.046875 -0.53125 C 1.160156 -0.425781 1.328125 -0.375 1.546875 -0.375 Z M 1.546875 -0.375 "/></g></g><g clip-rule="nonzero" clip-path="url(#d5aec16b2c)"><path style=" stroke:none;fill-rule:nonzero;fill:#00ff00;fill-opacity:1;" d="M 58.433594 87.097656 C 62.96875 87.097656 66.660156 83.40625 66.660156 78.871094 C 66.660156 74.332031 62.96875 70.640625 58.433594 70.640625 C 53.894531 70.640625 50.203125 74.332031 50.203125 78.871094 C 50.203125 83.40625 53.894531 87.097656 58.433594 87.097656 Z M 58.433594 75.476562 C 60.304688 75.476562 61.828125 77 61.828125 78.871094 C 61.828125 80.742188 60.304688 82.265625 58.433594 82.265625 C 56.558594 82.265625 55.039062 80.742188 55.039062 78.871094 C 55.039062 77 56.558594 75.476562 58.433594 75.476562 Z M 58.433594 116.484375 C 62.96875 116.484375 66.660156 112.792969 66.660156 108.257812 C 66.660156 103.71875 62.96875 100.027344 58.433594 100.027344 C 53.894531 100.027344 50.203125 103.71875 50.203125 108.257812 C 50.203125 112.792969 53.894531 116.484375 58.433594 116.484375 Z M 58.433594 104.859375 C 60.304688 104.859375 61.828125 106.382812 61.828125 108.253906 C 61.828125 110.128906 60.304688 111.652344 58.433594 111.652344 C 56.558594 111.652344 55.039062 110.128906 55.039062 108.253906 C 55.039062 106.382812 56.558594 104.859375 58.433594 104.859375 Z M 58.433594 129.414062 C 53.894531 129.414062 50.203125 133.105469 50.203125 137.640625 C 50.203125 142.179688 53.894531 145.871094 58.433594 145.871094 C 62.96875 145.871094 66.660156 142.179688 66.660156 137.640625 C 66.660156 133.105469 62.96875 129.414062 58.433594 129.414062 Z M 58.433594 141.035156 C 56.558594 141.035156 55.039062 139.511719 55.039062 137.640625 C 55.039062 135.769531 56.558594 134.246094 58.433594 134.246094 C 60.304688 134.246094 61.828125 135.769531 61.828125 137.640625 C 61.828125 139.511719 60.304688 141.035156 58.433594 141.035156 Z M 178.382812 133.734375 L 172.398438 131.429688 C 171.523438 128.234375 170.253906 125.167969 168.609375 122.289062 L 171.214844 116.421875 C 171.621094 115.507812 171.421875 114.4375 170.714844 113.730469 L 162.453125 105.472656 C 161.746094 104.765625 160.675781 104.566406 159.761719 104.972656 L 153.894531 107.578125 C 151.011719 105.929688 147.949219 104.660156 144.753906 103.789062 L 142.449219 97.800781 C 142.089844 96.867188 141.195312 96.25 140.195312 96.25 L 136.769531 96.25 L 136.769531 54.28125 C 136.769531 49.246094 131.632812 44.949219 121.914062 41.859375 C 113.191406 39.082031 101.636719 37.550781 89.382812 37.550781 C 77.128906 37.550781 65.578125 39.082031 56.851562 41.859375 C 47.132812 44.949219 41.996094 49.246094 41.996094 54.28125 L 41.996094 141.542969 C 41.996094 146.578125 47.132812 150.875 56.851562 153.96875 C 65.578125 156.742188 77.128906 158.273438 89.382812 158.273438 C 92.410156 158.273438 95.421875 158.171875 98.371094 157.984375 C 98.890625 159.140625 99.464844 160.273438 100.097656 161.375 L 97.492188 167.242188 C 97.085938 168.15625 97.285156 169.222656 97.992188 169.933594 L 106.253906 178.191406 C 106.960938 178.902344 108.027344 179.097656 108.941406 178.691406 L 114.8125 176.085938 C 117.691406 177.734375 120.753906 179.003906 123.949219 179.875 L 126.253906 185.863281 C 126.613281 186.796875 127.511719 187.414062 128.511719 187.414062 L 140.195312 187.414062 C 141.195312 187.414062 142.089844 186.796875 142.449219 185.863281 L 144.753906 179.878906 C 147.949219 179.003906 151.015625 177.734375 153.894531 176.085938 L 159.761719 178.691406 C 160.675781 179.097656 161.746094 178.898438 162.453125 178.191406 L 170.710938 169.933594 C 171.417969 169.222656 171.617188 168.15625 171.210938 167.242188 L 168.605469 161.371094 C 170.253906 158.492188 171.523438 155.429688 172.394531 152.234375 L 178.382812 149.929688 C 179.316406 149.570312 179.933594 148.671875 179.933594 147.671875 L 179.933594 135.988281 C 179.933594 134.992188 179.316406 134.09375 178.382812 133.734375 Z M 58.316406 46.464844 C 66.582031 43.835938 77.613281 42.386719 89.382812 42.386719 C 101.152344 42.386719 112.183594 43.835938 120.449219 46.464844 C 128.917969 49.160156 131.933594 52.269531 131.933594 54.28125 C 131.933594 56.292969 128.917969 59.402344 120.449219 62.097656 C 112.183594 64.730469 101.152344 66.175781 89.382812 66.175781 C 77.613281 66.175781 66.582031 64.730469 58.316406 62.097656 C 49.847656 59.402344 46.832031 56.292969 46.832031 54.28125 C 46.832031 52.269531 49.847656 49.160156 58.316406 46.464844 Z M 46.832031 62.035156 C 49.277344 63.792969 52.632812 65.363281 56.851562 66.707031 C 65.578125 69.480469 77.128906 71.011719 89.382812 71.011719 C 101.636719 71.011719 113.191406 69.480469 121.914062 66.707031 C 126.132812 65.363281 129.488281 63.792969 131.933594 62.035156 L 131.933594 83.367188 C 131.933594 85.378906 128.917969 88.492188 120.449219 91.1875 C 112.183594 93.816406 101.152344 95.265625 89.382812 95.265625 C 77.613281 95.265625 66.582031 93.816406 58.316406 91.1875 C 49.847656 88.492188 46.832031 85.378906 46.832031 83.367188 Z M 46.832031 91.121094 C 49.277344 92.878906 52.632812 94.449219 56.851562 95.792969 C 65.578125 98.570312 77.128906 100.097656 89.382812 100.097656 C 101.636719 100.097656 113.191406 98.570312 121.914062 95.792969 C 126.132812 94.449219 129.488281 92.878906 131.933594 91.121094 L 131.933594 96.25 L 128.511719 96.25 C 127.511719 96.25 126.613281 96.867188 126.253906 97.800781 L 123.949219 103.789062 C 120.753906 104.660156 117.691406 105.929688 114.8125 107.578125 L 108.941406 104.972656 C 108.027344 104.566406 106.960938 104.765625 106.253906 105.472656 L 97.992188 113.730469 C 97.285156 114.4375 97.085938 115.507812 97.492188 116.421875 L 100.097656 122.289062 C 99.777344 122.851562 99.472656 123.421875 99.179688 123.996094 C 95.980469 124.226562 92.695312 124.351562 89.382812 124.351562 C 77.613281 124.351562 66.582031 122.902344 58.320312 120.273438 C 49.847656 117.578125 46.832031 114.46875 46.832031 112.457031 Z M 89.382812 153.4375 C 77.613281 153.4375 66.582031 151.992188 58.316406 149.359375 C 49.847656 146.664062 46.832031 143.554688 46.832031 141.542969 L 46.832031 120.207031 C 49.277344 121.96875 52.632812 123.539062 56.851562 124.878906 C 65.578125 127.65625 77.128906 129.1875 89.382812 129.1875 C 91.96875 129.1875 94.535156 129.109375 97.066406 128.972656 C 96.789062 129.785156 96.535156 130.601562 96.308594 131.429688 L 90.320312 133.734375 C 89.386719 134.09375 88.769531 134.992188 88.769531 135.992188 L 88.769531 147.671875 C 88.769531 148.671875 89.386719 149.570312 90.320312 149.929688 L 96.304688 152.234375 C 96.398438 152.574219 96.5 152.910156 96.601562 153.246094 C 94.222656 153.371094 91.808594 153.4375 89.382812 153.4375 Z M 175.097656 146.011719 L 169.496094 148.171875 C 168.75 148.457031 168.195312 149.089844 168.011719 149.867188 C 167.164062 153.429688 165.757812 156.820312 163.832031 159.945312 C 163.414062 160.625 163.359375 161.464844 163.679688 162.195312 L 166.121094 167.6875 L 160.207031 173.601562 L 154.714844 171.164062 C 153.988281 170.839844 153.148438 170.894531 152.46875 171.3125 C 149.339844 173.238281 145.949219 174.644531 142.386719 175.492188 C 141.609375 175.675781 140.976562 176.230469 140.691406 176.976562 L 138.535156 182.578125 L 130.171875 182.578125 L 128.011719 176.972656 C 127.726562 176.230469 127.09375 175.675781 126.316406 175.492188 C 122.753906 174.644531 119.363281 173.238281 116.238281 171.3125 C 115.558594 170.894531 114.71875 170.839844 113.988281 171.160156 L 108.496094 173.601562 L 102.582031 167.6875 L 105.019531 162.195312 C 105.34375 161.46875 105.289062 160.628906 104.871094 159.949219 C 102.945312 156.824219 101.539062 153.429688 100.691406 149.867188 C 100.507812 149.089844 99.953125 148.457031 99.207031 148.171875 L 93.605469 146.015625 L 93.605469 137.648438 L 99.207031 135.492188 C 99.953125 135.207031 100.507812 134.570312 100.691406 133.796875 C 101.539062 130.234375 102.945312 126.84375 104.871094 123.71875 C 105.289062 123.039062 105.34375 122.199219 105.019531 121.46875 L 102.582031 115.976562 L 108.496094 110.0625 L 113.988281 112.503906 C 114.71875 112.824219 115.558594 112.769531 116.238281 112.351562 C 119.363281 110.425781 122.753906 109.019531 126.316406 108.171875 C 127.089844 107.988281 127.726562 107.433594 128.011719 106.6875 L 130.167969 101.085938 L 138.535156 101.085938 L 140.691406 106.6875 C 140.976562 107.433594 141.609375 107.988281 142.386719 108.171875 C 145.949219 109.019531 149.339844 110.425781 152.464844 112.351562 C 153.144531 112.769531 153.984375 112.824219 154.714844 112.503906 L 160.207031 110.0625 L 166.121094 115.976562 L 163.683594 121.46875 C 163.359375 122.195312 163.414062 123.035156 163.832031 123.714844 C 165.757812 126.84375 167.164062 130.234375 168.011719 133.796875 C 168.199219 134.574219 168.753906 135.207031 169.496094 135.492188 L 175.097656 137.648438 Z M 134.351562 114.988281 C 119.550781 114.988281 107.507812 127.027344 107.507812 141.832031 C 107.507812 156.632812 119.550781 168.675781 134.351562 168.675781 C 149.15625 168.675781 161.195312 156.636719 161.195312 141.832031 C 161.195312 127.027344 149.152344 114.988281 134.351562 114.988281 Z M 134.351562 163.84375 C 122.214844 163.84375 112.339844 153.96875 112.339844 141.832031 C 112.339844 129.695312 122.214844 119.820312 134.351562 119.820312 C 146.488281 119.820312 156.363281 129.695312 156.363281 141.832031 C 156.363281 153.96875 146.488281 163.84375 134.351562 163.84375 Z M 139.488281 151.664062 C 139.835938 152.953125 139.070312 154.277344 137.78125 154.625 C 137.570312 154.679688 137.359375 154.707031 137.152344 154.707031 C 136.085938 154.707031 135.109375 153.996094 134.820312 152.914062 L 129.214844 132 C 128.871094 130.710938 129.632812 129.382812 130.925781 129.039062 C 132.214844 128.695312 133.539062 129.457031 133.882812 130.746094 Z M 144.199219 132.289062 L 153.328125 139.984375 C 153.875 140.441406 154.1875 141.121094 154.1875 141.832031 C 154.1875 142.542969 153.875 143.222656 153.328125 143.679688 L 144.199219 151.375 C 143.742188 151.757812 143.191406 151.945312 142.640625 151.945312 C 141.953125 151.945312 141.269531 151.652344 140.792969 151.085938 C 139.929688 150.0625 140.0625 148.539062 141.082031 147.679688 L 148.019531 141.832031 L 141.082031 135.984375 C 140.0625 135.125 139.929688 133.601562 140.792969 132.578125 C 141.652344 131.558594 143.175781 131.429688 144.199219 132.289062 Z M 127.621094 135.984375 L 120.683594 141.832031 L 127.621094 147.679688 C 128.640625 148.539062 128.773438 150.0625 127.910156 151.085938 C 127.433594 151.652344 126.75 151.945312 126.0625 151.945312 C 125.511719 151.945312 124.960938 151.757812 124.507812 151.375 L 115.375 143.679688 C 114.828125 143.222656 114.515625 142.542969 114.515625 141.832031 C 114.515625 141.121094 114.828125 140.441406 115.375 139.984375 L 124.507812 132.289062 C 125.527344 131.429688 127.050781 131.558594 127.910156 132.578125 C 128.773438 133.601562 128.640625 135.125 127.621094 135.984375 Z M 127.621094 135.984375 "/></g></g></svg>