<svg xmlns="http://www.w3.org/2000/svg" xmlns:xlink="http://www.w3.org/1999/xlink" width="300" zoomAndPan="magnify" viewBox="0 0 224.87999 225" height="300" preserveAspectRatio="xMidYMid meet" version="1.2"><defs><clipPath id="2c1374d17e"><path d="M 30.339844 38.9375 L 205.746094 38.9375 L 205.746094 150 L 30.339844 150 Z M 30.339844 38.9375 "/></clipPath><clipPath id="014d7bc253"><path d="M 84 167 L 152 167 L 152 185.855469 L 84 185.855469 Z M 84 167 "/></clipPath></defs><g id="979892f0d1"><g style="fill:#000000;fill-opacity:1;"><g transform="translate(41.986534, 129.569784)"><path style="stroke:none" d="M 2.75 0 L 2.65625 -0.5 L 2.625 -0.5 C 2.445312 -0.28125 2.269531 -0.128906 2.09375 -0.046875 C 1.914062 0.0234375 1.695312 0.0625 1.4375 0.0625 C 1.082031 0.0625 0.804688 -0.0234375 0.609375 -0.203125 C 0.410156 -0.390625 0.3125 -0.648438 0.3125 -0.984375 C 0.3125 -1.703125 0.882812 -2.078125 2.03125 -2.109375 L 2.625 -2.125 L 2.625 -2.34375 C 2.625 -2.625 2.5625 -2.832031 2.4375 -2.96875 C 2.320312 -3.101562 2.132812 -3.171875 1.875 -3.171875 C 1.582031 -3.171875 1.25 -3.078125 0.875 -2.890625 L 0.703125 -3.3125 C 0.878906 -3.40625 1.070312 -3.476562 1.28125 -3.53125 C 1.488281 -3.582031 1.695312 -3.609375 1.90625 -3.609375 C 2.332031 -3.609375 2.644531 -3.515625 2.84375 -3.328125 C 3.050781 -3.140625 3.15625 -2.835938 3.15625 -2.421875 L 3.15625 0 Z M 1.546875 -0.375 C 1.878906 -0.375 2.140625 -0.46875 2.328125 -0.65625 C 2.515625 -0.84375 2.609375 -1.097656 2.609375 -1.421875 L 2.609375 -1.75 L 2.078125 -1.71875 C 1.648438 -1.707031 1.34375 -1.640625 1.15625 -1.515625 C 0.96875 -1.398438 0.875 -1.21875 0.875 -0.96875 C 0.875 -0.78125 0.929688 -0.632812 1.046875 -0.53125 C 1.160156 -0.425781 1.328125 -0.375 1.546875 -0.375 Z M 1.546875 -0.375 "/></g></g><g clip-rule="nonzero" clip-path="url(#2c1374d17e)"><path style=" stroke:none;fill-rule:nonzero;fill:#00ff00;fill-opacity:1;" d="M 203.5 149.363281 L 32.34375 149.363281 C 31.234375 149.363281 30.339844 148.464844 30.339844 147.355469 L 30.339844 40.984375 C 30.339844 39.875 31.234375 38.980469 32.34375 38.980469 L 203.5 38.980469 C 204.609375 38.980469 205.507812 39.875 205.507812 40.984375 L 205.507812 147.355469 C 205.507812 148.464844 204.609375 149.363281 203.5 149.363281 Z M 34.347656 145.351562 L 201.496094 145.351562 L 201.496094 42.988281 L 34.347656 42.988281 Z M 34.347656 145.351562 "/></g><path style=" stroke:none;fill-rule:nonzero;fill:#00ff00;fill-opacity:1;" d="M 191.957031 137.820312 L 43.886719 137.820312 C 42.78125 137.820312 41.882812 136.921875 41.882812 135.8125 L 41.882812 52.527344 C 41.882812 51.417969 42.78125 50.523438 43.886719 50.523438 L 191.957031 50.523438 C 193.066406 50.523438 193.964844 51.417969 193.964844 52.527344 L 193.964844 135.8125 C 193.964844 136.921875 193.066406 137.820312 191.957031 137.820312 Z M 45.894531 133.808594 L 189.953125 133.808594 L 189.953125 54.535156 L 45.894531 54.535156 Z M 45.894531 133.808594 "/><g clip-rule="nonzero" clip-path="url(#014d7bc253)"><path style=" stroke:none;fill-rule:nonzero;fill:#00ff00;fill-opacity:1;" d="M 149.289062 185.847656 L 86.554688 185.847656 C 85.941406 185.847656 85.363281 185.570312 84.984375 185.089844 C 84.605469 184.609375 84.460938 183.984375 84.601562 183.386719 L 88.011719 168.726562 C 88.222656 167.816406 89.03125 167.175781 89.964844 167.175781 L 145.757812 167.175781 C 146.683594 167.175781 147.488281 167.808594 147.707031 168.710938 L 151.238281 183.371094 C 151.382812 183.96875 151.246094 184.601562 150.867188 185.082031 C 150.484375 185.566406 149.90625 185.847656 149.289062 185.847656 Z M 89.082031 181.835938 L 146.742188 181.835938 L 144.175781 171.1875 L 91.558594 171.1875 Z M 89.082031 181.835938 "/></g><path style=" stroke:none;fill-rule:nonzero;fill:#00ff00;fill-opacity:1;" d="M 89.964844 171.1875 C 89.523438 171.1875 89.085938 171.042969 88.714844 170.75 C 87.847656 170.058594 87.707031 168.796875 88.394531 167.929688 L 105.785156 146.109375 C 106.472656 145.242188 107.738281 145.101562 108.601562 145.792969 C 109.46875 146.480469 109.613281 147.742188 108.921875 148.609375 L 91.53125 170.429688 C 91.136719 170.929688 90.550781 171.1875 89.964844 171.1875 Z M 89.964844 171.1875 "/><path style=" stroke:none;fill-rule:nonzero;fill:#00ff00;fill-opacity:1;" d="M 145.757812 171.1875 C 145.171875 171.1875 144.589844 170.929688 144.191406 170.4375 L 126.679688 148.617188 C 125.984375 147.75 126.125 146.488281 126.988281 145.796875 C 127.851562 145.101562 129.113281 145.242188 129.808594 146.105469 L 147.320312 167.925781 C 148.015625 168.789062 147.875 170.050781 147.011719 170.746094 C 146.640625 171.042969 146.199219 171.1875 145.757812 171.1875 Z M 145.757812 171.1875 "/><path style=" stroke:none;fill-rule:nonzero;fill:#00ff00;fill-opacity:1;" d="M 191.957031 73.800781 L 43.886719 73.800781 C 42.78125 73.800781 41.882812 72.902344 41.882812 71.792969 C 41.882812 70.6875 42.78125 69.789062 43.886719 69.789062 L 191.957031 69.789062 C 193.066406 69.789062 193.964844 70.6875 193.964844 71.792969 C 193.964844 72.902344 193.066406 73.800781 191.957031 73.800781 Z M 191.957031 73.800781 "/><path style=" stroke:none;fill-rule:nonzero;fill:#00ff00;fill-opacity:1;" d="M 52.246094 59.226562 L 59.324219 59.226562 L 59.324219 66.304688 L 52.246094 66.304688 Z M 52.246094 59.226562 "/><path style=" stroke:none;fill-rule:nonzero;fill:#00ff00;fill-opacity:1;" d="M 65.910156 59.226562 L 72.988281 59.226562 L 72.988281 66.304688 L 65.910156 66.304688 Z M 65.910156 59.226562 "/><path style=" stroke:none;fill-rule:nonzero;fill:#00ff00;fill-opacity:1;" d="M 79.578125 59.226562 L 86.65625 59.226562 L 86.65625 66.304688 L 79.578125 66.304688 Z M 79.578125 59.226562 "/><path style=" stroke:none;fill-rule:nonzero;fill:#00ff00;fill-opacity:1;" d="M 128.242188 85.574219 L 55.269531 85.574219 C 54.160156 85.574219 53.261719 84.675781 53.261719 83.570312 C 53.261719 82.460938 54.160156 81.5625 55.269531 81.5625 L 128.242188 81.5625 C 129.351562 81.5625 130.25 82.460938 130.25 83.570312 C 130.25 84.675781 129.351562 85.574219 128.242188 85.574219 Z M 128.242188 85.574219 "/><path style=" stroke:none;fill-rule:nonzero;fill:#00ff00;fill-opacity:1;" d="M 128.242188 94.882812 L 55.269531 94.882812 C 54.160156 94.882812 53.261719 93.984375 53.261719 92.878906 C 53.261719 91.769531 54.160156 90.871094 55.269531 90.871094 L 128.242188 90.871094 C 129.351562 90.871094 130.25 91.769531 130.25 92.878906 C 130.25 93.984375 129.351562 94.882812 128.242188 94.882812 Z M 128.242188 94.882812 "/><path style=" stroke:none;fill-rule:nonzero;fill:#00ff00;fill-opacity:1;" d="M 112.246094 104.191406 L 55.269531 104.191406 C 54.160156 104.191406 53.261719 103.292969 53.261719 102.183594 C 53.261719 101.078125 54.160156 100.179688 55.269531 100.179688 L 112.246094 100.179688 C 113.355469 100.179688 114.253906 101.078125 114.253906 102.183594 C 114.253906 103.292969 113.355469 104.191406 112.246094 104.191406 Z M 112.246094 104.191406 "/><path style=" stroke:none;fill-rule:nonzero;fill:#00ff00;fill-opacity:1;" d="M 128.242188 128.644531 L 55.785156 128.644531 C 54.675781 128.644531 53.777344 127.746094 53.777344 126.640625 L 53.777344 112.070312 C 53.777344 110.960938 54.675781 110.0625 55.785156 110.0625 L 128.242188 110.0625 C 129.351562 110.0625 130.25 110.960938 130.25 112.070312 L 130.25 126.640625 C 130.25 127.746094 129.351562 128.644531 128.242188 128.644531 Z M 57.789062 124.632812 L 126.238281 124.632812 L 126.238281 114.074219 L 57.789062 114.074219 Z M 57.789062 124.632812 "/><path style=" stroke:none;fill-rule:nonzero;fill:#00ff00;fill-opacity:1;" d="M 150.667969 108.675781 C 150.117188 108.675781 149.570312 108.449219 149.175781 108.007812 L 140.253906 98.085938 C 139.566406 97.320312 139.566406 96.164062 140.253906 95.402344 L 149.175781 85.480469 C 149.914062 84.65625 151.183594 84.585938 152.007812 85.328125 C 152.832031 86.070312 152.898438 87.335938 152.15625 88.160156 L 144.441406 96.742188 L 152.160156 105.328125 C 152.898438 106.152344 152.832031 107.417969 152.007812 108.160156 C 151.625 108.503906 151.144531 108.675781 150.667969 108.675781 Z M 150.667969 108.675781 "/><path style=" stroke:none;fill-rule:nonzero;fill:#00ff00;fill-opacity:1;" d="M 170.976562 108.675781 C 170.5 108.675781 170.019531 108.503906 169.636719 108.160156 C 168.8125 107.417969 168.746094 106.152344 169.484375 105.328125 L 177.203125 96.742188 L 169.488281 88.160156 C 168.746094 87.335938 168.8125 86.070312 169.636719 85.328125 C 170.460938 84.585938 171.730469 84.65625 172.46875 85.480469 L 181.390625 95.402344 C 182.078125 96.164062 182.078125 97.320312 181.390625 98.085938 L 172.46875 108.007812 C 172.074219 108.449219 171.527344 108.675781 170.976562 108.675781 Z M 170.976562 108.675781 "/><path style=" stroke:none;fill-rule:nonzero;fill:#00ff00;fill-opacity:1;" d="M 155.753906 111.925781 C 155.511719 111.925781 155.269531 111.882812 155.035156 111.789062 C 154 111.394531 153.484375 110.230469 153.882812 109.199219 L 164.019531 82.847656 C 164.417969 81.816406 165.578125 81.300781 166.613281 81.699219 C 167.644531 82.09375 168.160156 83.257812 167.761719 84.289062 L 157.625 110.636719 C 157.320312 111.433594 156.558594 111.925781 155.753906 111.925781 Z M 155.753906 111.925781 "/></g></svg>