<svg xmlns="http://www.w3.org/2000/svg" xmlns:xlink="http://www.w3.org/1999/xlink" width="300" zoomAndPan="magnify" viewBox="0 0 224.87999 225" height="300" preserveAspectRatio="xMidYMid meet" version="1.2"><defs><clipPath id="34af611e10"><path d="M 41.988281 46.539062 L 182.910156 46.539062 L 182.910156 153 L 41.988281 153 Z M 41.988281 46.539062 "/></clipPath><clipPath id="4fe71d9aaf"><path d="M 41.988281 125 L 182.910156 125 L 182.910156 130 L 41.988281 130 Z M 41.988281 125 "/></clipPath><clipPath id="cc483f4010"><path d="M 71 163 L 154 163 L 154 178.46875 L 71 178.46875 Z M 71 163 "/></clipPath></defs><g id="c784a1e59d"><g style="fill:#000000;fill-opacity:1;"><g transform="translate(41.986534, 129.569784)"><path style="stroke:none" d="M 2.75 0 L 2.65625 -0.5 L 2.625 -0.5 C 2.445312 -0.28125 2.269531 -0.128906 2.09375 -0.046875 C 1.914062 0.0234375 1.695312 0.0625 1.4375 0.0625 C 1.082031 0.0625 0.804688 -0.0234375 0.609375 -0.203125 C 0.410156 -0.390625 0.3125 -0.648438 0.3125 -0.984375 C 0.3125 -1.703125 0.882812 -2.078125 2.03125 -2.109375 L 2.625 -2.125 L 2.625 -2.34375 C 2.625 -2.625 2.5625 -2.832031 2.4375 -2.96875 C 2.320312 -3.101562 2.132812 -3.171875 1.875 -3.171875 C 1.582031 -3.171875 1.25 -3.078125 0.875 -2.890625 L 0.703125 -3.3125 C 0.878906 -3.40625 1.070312 -3.476562 1.28125 -3.53125 C 1.488281 -3.582031 1.695312 -3.609375 1.90625 -3.609375 C 2.332031 -3.609375 2.644531 -3.515625 2.84375 -3.328125 C 3.050781 -3.140625 3.15625 -2.835938 3.15625 -2.421875 L 3.15625 0 Z M 1.546875 -0.375 C 1.878906 -0.375 2.140625 -0.46875 2.328125 -0.65625 C 2.515625 -0.84375 2.609375 -1.097656 2.609375 -1.421875 L 2.609375 -1.75 L 2.078125 -1.71875 C 1.648438 -1.707031 1.34375 -1.640625 1.15625 -1.515625 C 0.96875 -1.398438 0.875 -1.21875 0.875 -0.96875 C 0.875 -0.78125 0.929688 -0.632812 1.046875 -0.53125 C 1.160156 -0.425781 1.328125 -0.375 1.546875 -0.375 Z M 1.546875 -0.375 "/></g></g><path style=" stroke:none;fill-rule:nonzero;fill:#00ff00;fill-opacity:1;" d="M 110.433594 109.710938 C 110.25 109.710938 110.066406 109.679688 109.878906 109.613281 C 109.054688 109.304688 108.632812 108.386719 108.941406 107.5625 L 123.980469 66.996094 C 124.285156 66.171875 125.203125 65.75 126.03125 66.058594 C 126.855469 66.363281 127.277344 67.28125 126.96875 68.105469 L 111.929688 108.671875 C 111.695312 109.3125 111.085938 109.710938 110.433594 109.710938 Z M 110.433594 109.710938 "/><path style=" stroke:none;fill-rule:nonzero;fill:#00ff00;fill-opacity:1;" d="M 74.667969 102.144531 C 69.476562 102.144531 65.25 98.140625 65.25 93.222656 L 65.25 75.300781 C 65.25 74.421875 65.964844 73.707031 66.84375 73.707031 C 67.726562 73.707031 68.4375 74.421875 68.4375 75.300781 L 68.4375 93.222656 C 68.4375 96.386719 71.230469 98.957031 74.667969 98.957031 C 78.105469 98.957031 80.898438 96.386719 80.898438 93.222656 L 80.898438 75.300781 C 80.898438 74.421875 81.609375 73.707031 82.492188 73.707031 C 83.371094 73.707031 84.085938 74.421875 84.085938 75.300781 L 84.085938 93.222656 C 84.085938 98.140625 79.859375 102.144531 74.667969 102.144531 Z M 74.667969 102.144531 "/><path style=" stroke:none;fill-rule:nonzero;fill:#00ff00;fill-opacity:1;" d="M 90.050781 102.144531 C 89.792969 102.144531 89.535156 102.085938 89.292969 101.953125 C 88.519531 101.539062 88.230469 100.570312 88.648438 99.796875 L 102.347656 74.363281 C 102.765625 73.589844 103.730469 73.300781 104.507812 73.71875 C 105.28125 74.132812 105.570312 75.101562 105.152344 75.875 L 91.453125 101.308594 C 91.167969 101.839844 90.617188 102.144531 90.050781 102.144531 Z M 90.050781 102.144531 "/><path style=" stroke:none;fill-rule:nonzero;fill:#00ff00;fill-opacity:1;" d="M 103.753906 102.144531 C 103.1875 102.144531 102.636719 101.84375 102.347656 101.308594 L 88.648438 75.875 C 88.230469 75.101562 88.519531 74.132812 89.292969 73.71875 C 90.066406 73.300781 91.035156 73.589844 91.453125 74.363281 L 105.152344 99.796875 C 105.570312 100.570312 105.28125 101.539062 104.507812 101.953125 C 104.265625 102.082031 104.007812 102.144531 103.753906 102.144531 Z M 103.753906 102.144531 "/><path style=" stroke:none;fill-rule:nonzero;fill:#00ff00;fill-opacity:1;" d="M 139.984375 102.144531 C 134.789062 102.144531 130.566406 98.140625 130.566406 93.222656 L 130.566406 75.300781 C 130.566406 74.421875 131.28125 73.707031 132.160156 73.707031 C 133.039062 73.707031 133.753906 74.421875 133.753906 75.300781 L 133.753906 93.222656 C 133.753906 96.386719 136.546875 98.957031 139.984375 98.957031 C 143.417969 98.957031 146.210938 96.386719 146.210938 93.222656 L 146.210938 75.300781 C 146.210938 74.421875 146.925781 73.707031 147.804688 73.707031 C 148.6875 73.707031 149.398438 74.421875 149.398438 75.300781 L 149.398438 93.222656 C 149.398438 98.140625 145.171875 102.144531 139.984375 102.144531 Z M 139.984375 102.144531 "/><path style=" stroke:none;fill-rule:nonzero;fill:#00ff00;fill-opacity:1;" d="M 158 103.875 C 157.121094 103.875 156.40625 103.160156 156.40625 102.28125 L 156.398438 73.390625 C 156.398438 72.511719 157.109375 71.796875 157.992188 71.796875 C 158.871094 71.796875 159.585938 72.511719 159.585938 73.390625 L 159.59375 102.28125 C 159.597656 103.160156 158.882812 103.871094 158 103.875 C 158.003906 103.875 158 103.875 158 103.875 Z M 158 103.875 "/><path style=" stroke:none;fill-rule:nonzero;fill:#00ff00;fill-opacity:1;" d="M 97.050781 144.417969 C 94.140625 144.417969 91.777344 142.054688 91.777344 139.148438 C 91.777344 136.238281 94.140625 133.875 97.050781 133.875 C 99.957031 133.875 102.324219 136.238281 102.324219 139.148438 C 102.324219 142.054688 99.957031 144.417969 97.050781 144.417969 Z M 97.050781 137.0625 C 95.898438 137.0625 94.964844 137.996094 94.964844 139.148438 C 94.964844 140.296875 95.898438 141.230469 97.050781 141.230469 C 98.199219 141.230469 99.132812 140.296875 99.132812 139.148438 C 99.132812 137.996094 98.199219 137.0625 97.050781 137.0625 Z M 97.050781 137.0625 "/><path style=" stroke:none;fill-rule:nonzero;fill:#00ff00;fill-opacity:1;" d="M 112.425781 144.417969 C 109.515625 144.417969 107.152344 142.054688 107.152344 139.148438 C 107.152344 136.238281 109.515625 133.875 112.425781 133.875 C 115.332031 133.875 117.695312 136.238281 117.695312 139.148438 C 117.695312 142.054688 115.332031 144.417969 112.425781 144.417969 Z M 112.425781 137.0625 C 111.273438 137.0625 110.339844 137.996094 110.339844 139.148438 C 110.339844 140.296875 111.273438 141.230469 112.425781 141.230469 C 113.574219 141.230469 114.507812 140.296875 114.507812 139.148438 C 114.507812 137.996094 113.574219 137.0625 112.425781 137.0625 Z M 112.425781 137.0625 "/><path style=" stroke:none;fill-rule:nonzero;fill:#00ff00;fill-opacity:1;" d="M 127.800781 144.417969 C 124.890625 144.417969 122.527344 142.054688 122.527344 139.148438 C 122.527344 136.238281 124.890625 133.875 127.800781 133.875 C 130.707031 133.875 133.070312 136.238281 133.070312 139.148438 C 133.070312 142.054688 130.707031 144.417969 127.800781 144.417969 Z M 127.800781 137.0625 C 126.648438 137.0625 125.714844 137.996094 125.714844 139.148438 C 125.714844 140.296875 126.648438 141.230469 127.800781 141.230469 C 128.949219 141.230469 129.882812 140.296875 129.882812 139.148438 C 129.882812 137.996094 128.949219 137.0625 127.800781 137.0625 Z M 127.800781 137.0625 "/><g clip-rule="nonzero" clip-path="url(#34af611e10)"><path style=" stroke:none;fill-rule:nonzero;fill:#00ff00;fill-opacity:1;" d="M 172.980469 152.398438 L 51.867188 152.398438 C 46.414062 152.398438 41.972656 147.960938 41.972656 142.503906 L 41.972656 56.480469 C 41.972656 51.027344 46.410156 46.585938 51.867188 46.585938 L 172.980469 46.585938 C 178.4375 46.585938 182.875 51.023438 182.875 56.480469 L 182.875 142.503906 C 182.875 147.960938 178.4375 152.398438 172.980469 152.398438 Z M 51.867188 49.773438 C 48.171875 49.773438 45.160156 52.78125 45.160156 56.480469 L 45.160156 142.503906 C 45.160156 146.203125 48.171875 149.210938 51.867188 149.210938 L 172.980469 149.210938 C 176.679688 149.210938 179.6875 146.203125 179.6875 142.503906 L 179.6875 56.480469 C 179.6875 52.78125 176.679688 49.773438 172.980469 49.773438 Z M 51.867188 49.773438 "/></g><g clip-rule="nonzero" clip-path="url(#4fe71d9aaf)"><path style=" stroke:none;fill-rule:nonzero;fill:#00ff00;fill-opacity:1;" d="M 181.28125 129.082031 L 43.566406 129.082031 C 42.6875 129.082031 41.972656 128.367188 41.972656 127.488281 C 41.972656 126.609375 42.6875 125.894531 43.566406 125.894531 L 181.28125 125.894531 C 182.160156 125.894531 182.875 126.609375 182.875 127.488281 C 182.875 128.367188 182.160156 129.082031 181.28125 129.082031 Z M 181.28125 129.082031 "/></g><path style=" stroke:none;fill-rule:nonzero;fill:#00ff00;fill-opacity:1;" d="M 137.890625 167.113281 C 137.011719 167.113281 136.296875 166.398438 136.296875 165.519531 L 136.296875 150.804688 C 136.296875 149.925781 137.011719 149.210938 137.890625 149.210938 C 138.773438 149.210938 139.484375 149.925781 139.484375 150.804688 L 139.484375 165.519531 C 139.484375 166.398438 138.773438 167.113281 137.890625 167.113281 Z M 87.710938 167.113281 C 86.832031 167.113281 86.117188 166.398438 86.117188 165.519531 L 86.117188 150.804688 C 86.117188 149.925781 86.832031 149.210938 87.710938 149.210938 C 88.59375 149.210938 89.304688 149.925781 89.304688 150.804688 L 89.304688 165.519531 C 89.304688 166.398438 88.59375 167.113281 87.710938 167.113281 Z M 87.710938 167.113281 "/><g clip-rule="nonzero" clip-path="url(#cc483f4010)"><path style=" stroke:none;fill-rule:nonzero;fill:#00ff00;fill-opacity:1;" d="M 146.570312 178.433594 L 78.28125 178.433594 C 74.277344 178.433594 71.027344 175.179688 71.027344 171.179688 C 71.027344 167.179688 74.28125 163.929688 78.28125 163.929688 L 146.570312 163.929688 C 150.570312 163.929688 153.820312 167.183594 153.820312 171.179688 C 153.824219 175.179688 150.570312 178.433594 146.570312 178.433594 Z M 78.28125 167.113281 C 76.039062 167.113281 74.214844 168.9375 74.214844 171.179688 C 74.214844 173.417969 76.039062 175.242188 78.28125 175.242188 L 146.570312 175.242188 C 148.808594 175.242188 150.632812 173.417969 150.632812 171.179688 C 150.632812 168.9375 148.808594 167.113281 146.570312 167.113281 Z M 78.28125 167.113281 "/></g></g></svg>