<svg xmlns="http://www.w3.org/2000/svg" xmlns:xlink="http://www.w3.org/1999/xlink" width="300" zoomAndPan="magnify" viewBox="0 0 224.87999 225" height="300" preserveAspectRatio="xMidYMid meet" version="1.2"><defs><clipPath id="964b69471a"><path d="M 44.976562 45.035156 L 179.902344 45.035156 L 179.902344 179.964844 L 44.976562 179.964844 Z M 44.976562 45.035156 "/></clipPath></defs><g id="8caf5dd721"><g style="fill:#000000;fill-opacity:1;"><g transform="translate(99.040583, 83.462627)"><path style="stroke:none" d="M 4.140625 0 L 3.984375 -0.765625 L 3.9375 -0.765625 C 3.675781 -0.429688 3.410156 -0.203125 3.140625 -0.078125 C 2.878906 0.0351562 2.550781 0.09375 2.15625 0.09375 C 1.625 0.09375 1.207031 -0.0390625 0.90625 -0.3125 C 0.601562 -0.582031 0.453125 -0.972656 0.453125 -1.484375 C 0.453125 -2.554688 1.316406 -3.117188 3.046875 -3.171875 L 3.953125 -3.203125 L 3.953125 -3.53125 C 3.953125 -3.945312 3.859375 -4.253906 3.671875 -4.453125 C 3.492188 -4.660156 3.207031 -4.765625 2.8125 -4.765625 C 2.375 -4.765625 1.875 -4.628906 1.3125 -4.359375 L 1.0625 -4.96875 C 1.320312 -5.113281 1.609375 -5.226562 1.921875 -5.3125 C 2.234375 -5.394531 2.546875 -5.4375 2.859375 -5.4375 C 3.503906 -5.4375 3.976562 -5.289062 4.28125 -5 C 4.59375 -4.71875 4.75 -4.265625 4.75 -3.640625 L 4.75 0 Z M 2.3125 -0.578125 C 2.820312 -0.578125 3.21875 -0.710938 3.5 -0.984375 C 3.789062 -1.265625 3.9375 -1.648438 3.9375 -2.140625 L 3.9375 -2.625 L 3.125 -2.59375 C 2.476562 -2.570312 2.015625 -2.472656 1.734375 -2.296875 C 1.453125 -2.117188 1.3125 -1.84375 1.3125 -1.46875 C 1.3125 -1.175781 1.398438 -0.953125 1.578125 -0.796875 C 1.753906 -0.648438 2 -0.578125 2.3125 -0.578125 Z M 2.3125 -0.578125 "/></g></g><path style=" stroke:none;fill-rule:nonzero;fill:#00ff00;fill-opacity:1;" d="M 115.175781 133.78125 L 115.175781 165.640625 C 117.382812 165.527344 119.550781 165.265625 121.675781 164.890625 C 129.0625 159.554688 135.125 148.117188 138.207031 133.78125 Z M 115.175781 133.78125 "/><path style=" stroke:none;fill-rule:nonzero;fill:#00ff00;fill-opacity:1;" d="M 109.703125 91.21875 L 109.703125 59.355469 C 107.496094 59.46875 105.332031 59.734375 103.203125 60.109375 C 95.816406 65.445312 89.753906 76.882812 86.671875 91.21875 Z M 109.703125 91.21875 "/><path style=" stroke:none;fill-rule:nonzero;fill:#00ff00;fill-opacity:1;" d="M 161.191406 91.21875 C 155.636719 78.539062 145.277344 68.433594 132.429688 63.203125 C 137.625 70.179688 141.640625 79.855469 143.878906 91.21875 Z M 161.191406 91.21875 "/><path style=" stroke:none;fill-rule:nonzero;fill:#00ff00;fill-opacity:1;" d="M 121.675781 60.109375 C 119.550781 59.734375 117.382812 59.46875 115.175781 59.355469 L 115.175781 91.214844 L 138.210938 91.214844 C 135.125 76.882812 129.0625 65.441406 121.675781 60.109375 Z M 121.675781 60.109375 "/><path style=" stroke:none;fill-rule:nonzero;fill:#00ff00;fill-opacity:1;" d="M 103.203125 164.890625 C 105.332031 165.265625 107.5 165.527344 109.703125 165.640625 L 109.703125 133.78125 L 86.671875 133.78125 C 89.753906 148.117188 95.816406 159.558594 103.203125 164.890625 Z M 103.203125 164.890625 "/><path style=" stroke:none;fill-rule:nonzero;fill:#00ff00;fill-opacity:1;" d="M 63.6875 133.78125 C 69.242188 146.460938 79.601562 156.566406 92.449219 161.796875 C 87.253906 154.816406 83.242188 145.148438 81 133.78125 Z M 63.6875 133.78125 "/><path style=" stroke:none;fill-rule:nonzero;fill:#00ff00;fill-opacity:1;" d="M 132.429688 161.800781 C 145.277344 156.570312 155.636719 146.460938 161.191406 133.785156 L 143.878906 133.785156 C 141.640625 145.148438 137.625 154.820312 132.429688 161.800781 Z M 132.429688 161.800781 "/><path style=" stroke:none;fill-rule:nonzero;fill:#00ff00;fill-opacity:1;" d="M 92.449219 63.199219 C 79.601562 68.429688 69.242188 78.539062 63.6875 91.214844 L 81 91.214844 C 83.238281 79.851562 87.253906 70.179688 92.449219 63.199219 Z M 92.449219 63.199219 "/><g clip-rule="nonzero" clip-path="url(#964b69471a)"><path style=" stroke:none;fill-rule:nonzero;fill:#00ff00;fill-opacity:1;" d="M 112.441406 45.035156 C 75.238281 45.035156 44.976562 75.300781 44.976562 112.5 C 44.976562 149.699219 75.238281 179.964844 112.441406 179.964844 C 149.640625 179.964844 179.902344 149.699219 179.902344 112.5 C 179.902344 75.300781 149.640625 45.035156 112.441406 45.035156 Z M 112.441406 173.179688 C 78.980469 173.179688 51.761719 145.957031 51.761719 112.5 C 51.761719 79.039062 78.980469 51.820312 112.441406 51.820312 C 145.898438 51.820312 173.121094 79.039062 173.121094 112.5 C 173.121094 145.960938 145.898438 173.179688 112.441406 173.179688 Z M 112.441406 173.179688 "/></g><path style=" stroke:none;fill-rule:nonzero;fill:#00ff00;fill-opacity:1;" d="M 74.96875 123.308594 L 79.5625 108.335938 L 79.8125 108.335938 L 84.40625 123.308594 L 88.0625 123.308594 L 95.691406 101.460938 L 91.722656 101.460938 L 86.21875 117.183594 L 81.34375 101.460938 L 78.035156 101.460938 L 73.15625 117.183594 L 67.65625 101.460938 L 63.6875 101.460938 L 71.3125 123.308594 Z M 74.96875 123.308594 "/><path style=" stroke:none;fill-rule:nonzero;fill:#00ff00;fill-opacity:1;" d="M 120.816406 123.308594 L 128.445312 101.460938 L 124.476562 101.460938 L 118.972656 117.183594 L 114.097656 101.460938 L 110.789062 101.460938 L 105.910156 117.183594 L 100.410156 101.460938 L 96.441406 101.460938 L 104.066406 123.308594 L 107.722656 123.308594 L 112.316406 108.335938 L 112.566406 108.335938 L 117.160156 123.308594 Z M 120.816406 123.308594 "/><path style=" stroke:none;fill-rule:nonzero;fill:#00ff00;fill-opacity:1;" d="M 151.726562 117.183594 L 146.847656 101.460938 L 143.539062 101.460938 L 138.664062 117.183594 L 133.160156 101.460938 L 129.191406 101.460938 L 136.816406 123.308594 L 140.472656 123.308594 L 145.070312 108.335938 L 145.316406 108.335938 L 149.910156 123.308594 L 153.570312 123.308594 L 161.191406 101.460938 L 157.226562 101.460938 Z M 151.726562 117.183594 "/></g></svg>