<svg xmlns="http://www.w3.org/2000/svg" xmlns:xlink="http://www.w3.org/1999/xlink" width="300" zoomAndPan="magnify" viewBox="0 0 224.87999 225" height="300" preserveAspectRatio="xMidYMid meet" version="1.2"><defs><clipPath id="e680cf0c67"><path d="M 28.933594 25.53125 L 182.601562 25.53125 L 182.601562 178.449219 L 28.933594 178.449219 Z M 28.933594 25.53125 "/></clipPath></defs><g id="e3e8b329cc"><g style="fill:#000000;fill-opacity:1;"><g transform="translate(105.710224, 108.328567)"><path style="stroke:none" d="M 2.75 0 L 2.65625 -0.5 L 2.625 -0.5 C 2.445312 -0.28125 2.269531 -0.128906 2.09375 -0.046875 C 1.914062 0.0234375 1.695312 0.0625 1.4375 0.0625 C 1.082031 0.0625 0.804688 -0.0234375 0.609375 -0.203125 C 0.410156 -0.390625 0.3125 -0.648438 0.3125 -0.984375 C 0.3125 -1.703125 0.882812 -2.078125 2.03125 -2.109375 L 2.625 -2.125 L 2.625 -2.34375 C 2.625 -2.625 2.5625 -2.832031 2.4375 -2.96875 C 2.320312 -3.101562 2.132812 -3.171875 1.875 -3.171875 C 1.582031 -3.171875 1.25 -3.078125 0.875 -2.890625 L 0.703125 -3.3125 C 0.878906 -3.40625 1.070312 -3.476562 1.28125 -3.53125 C 1.488281 -3.582031 1.695312 -3.609375 1.90625 -3.609375 C 2.332031 -3.609375 2.644531 -3.515625 2.84375 -3.328125 C 3.050781 -3.140625 3.15625 -2.835938 3.15625 -2.421875 L 3.15625 0 Z M 1.546875 -0.375 C 1.878906 -0.375 2.140625 -0.46875 2.328125 -0.65625 C 2.515625 -0.84375 2.609375 -1.097656 2.609375 -1.421875 L 2.609375 -1.75 L 2.078125 -1.71875 C 1.648438 -1.707031 1.34375 -1.640625 1.15625 -1.515625 C 0.96875 -1.398438 0.875 -1.21875 0.875 -0.96875 C 0.875 -0.78125 0.929688 -0.632812 1.046875 -0.53125 C 1.160156 -0.425781 1.328125 -0.375 1.546875 -0.375 Z M 1.546875 -0.375 "/></g></g><g clip-rule="nonzero" clip-path="url(#e680cf0c67)"><path style=" stroke:none;fill-rule:nonzero;fill:#00ff00;fill-opacity:1;" d="M 105.683594 25.582031 C 63.367188 25.582031 28.933594 59.851562 28.933594 101.976562 C 28.933594 144.097656 63.367188 178.367188 105.683594 178.367188 C 147.996094 178.367188 182.425781 144.097656 182.425781 101.976562 C 182.425781 59.851562 147.996094 25.582031 105.683594 25.582031 M 105.683594 35.132812 C 119.238281 35.132812 131.839844 39.179688 142.402344 46.085938 C 138.730469 48.117188 135.324219 52.398438 135.324219 61.484375 C 135.324219 66.320312 138.632812 71.921875 142.460938 78.414062 C 147.058594 86.210938 152.753906 95.902344 151.328125 102.898438 C 149.753906 107.53125 145.761719 118.046875 141.4375 129.265625 L 121.605469 72.542969 C 122.007812 72.4375 122.460938 72.371094 122.84375 72.246094 C 125.359375 71.417969 126.710938 68.714844 125.875 66.214844 C 125.03125 63.710938 122.324219 62.382812 119.800781 63.195312 C 115.714844 64.550781 108.320312 64.523438 103.878906 64.511719 L 101.210938 64.511719 C 96.796875 64.523438 89.375 64.550781 85.285156 63.195312 C 82.800781 62.355469 80.078125 63.710938 79.234375 66.214844 C 78.390625 68.714844 79.75 71.417969 82.265625 72.246094 C 84.289062 72.925781 86.675781 73.289062 89.113281 73.554688 L 100.914062 104.09375 L 89.757812 132.113281 L 70.695312 72.753906 C 71.394531 72.59375 72.140625 72.46875 72.785156 72.246094 C 75.300781 71.417969 76.660156 68.714844 75.816406 66.214844 C 74.972656 63.710938 72.269531 62.355469 69.753906 63.195312 C 65.675781 64.550781 58.261719 64.511719 53.820312 64.511719 L 52.503906 64.511719 C 51.640625 64.511719 50.929688 64.445312 50.203125 64.390625 C 62.300781 46.742188 82.648438 35.132812 105.683594 35.132812 M 38.53125 101.976562 C 38.53125 94.46875 39.832031 87.269531 42.136719 80.527344 L 71.566406 159.453125 C 51.832031 147.792969 38.53125 126.429688 38.53125 101.976562 M 86.582031 166.03125 L 106 117.253906 L 124.839844 166.019531 C 118.765625 167.816406 112.339844 168.816406 105.683594 168.816406 C 99.042969 168.816406 92.640625 167.816406 86.582031 166.03125 M 140.015625 159.308594 C 146.230469 143.445312 156.9375 115.972656 160.152344 106.679688 L 160.277344 106.722656 C 160.410156 106.339844 160.554688 105.84375 160.648438 105.257812 C 161.734375 102.261719 162.65625 99.519531 163.394531 97.210938 C 165.765625 89.75 167.269531 83.191406 168.054688 77.382812 C 171.105469 85.003906 172.832031 93.285156 172.832031 101.972656 C 172.835938 126.335938 159.632812 147.628906 140.015625 159.308594 "/></g></g></svg>